<?xml version="1.0"?><svg width="800" height="600" xmlns="http://www.w3.org/2000/svg">
 <defs>
  <linearGradient y2="0.007813" y1="0.007813" x2="0.58" x1="0.34" id="linearGradient3432"/>
  <linearGradient y2="0.367187" y1="0.718751" x2="0.159996" x1="0.700002" id="linearGradient5301"/>
  <linearGradient y2="0.96094" y1="0.03906" x2="0.540001" x1="0.540001" id="linearGradient2189"/>
  <linearGradient y2="0.499983" x2="1.004398" y1="0.499983" x1="-0.004417" id="linearGradient4679"/>
  <linearGradient y2="0.499983" x2="1.023676" y1="0.499983" x1="-0.023665" id="linearGradient4681"/>
  <linearGradient y2="0.499996" x2="1.033337" y1="0.499996" x1="-0.033383" id="linearGradient4683"/>
  <linearGradient y2="0.499983" x2="1.004398" y1="0.499983" x1="-0.004417" id="linearGradient4693"/>
  <linearGradient y2="0.499983" x2="1.023676" y1="0.499983" x1="-0.023665" id="linearGradient4695"/>
  <linearGradient y2="0.499996" x2="1.033337" y1="0.499996" x1="-0.033383" id="linearGradient4697"/>
  <linearGradient y2="0.499983" x2="1.004398" y1="0.499983" x1="-0.004417" id="linearGradient4707"/>
  <linearGradient y2="0.499983" x2="1.023676" y1="0.499983" x1="-0.023665" id="linearGradient4709"/>
  <linearGradient y2="0.499996" x2="1.033337" y1="0.499996" x1="-0.033383" id="linearGradient4711"/>
  <linearGradient y2="0.499983" x2="1.004398" y1="0.499983" x1="-0.004417" id="linearGradient4721"/>
  <linearGradient y2="0.499983" x2="1.023676" y1="0.499983" x1="-0.023665" id="linearGradient4723"/>
  <linearGradient y2="0.499996" x2="1.033337" y1="0.499996" x1="-0.033383" id="linearGradient4725"/>
  <linearGradient y2="0.499983" x2="1.004398" y1="0.499983" x1="-0.004417" id="linearGradient4735"/>
  <linearGradient y2="0.499983" x2="1.023676" y1="0.499983" x1="-0.023665" id="linearGradient4737"/>
  <linearGradient y2="0.499996" x2="1.033337" y1="0.499996" x1="-0.033383" id="linearGradient4739"/>
  <linearGradient y2="0.499983" x2="1.004398" y1="0.499983" x1="-0.004417" id="linearGradient4749"/>
  <linearGradient y2="0.499983" x2="1.023676" y1="0.499983" x1="-0.023665" id="linearGradient4751"/>
  <linearGradient y2="0.499996" x2="1.033337" y1="0.499996" x1="-0.033383" id="linearGradient4753"/>
  <linearGradient y2="0.499974" x2="-0.004437" y1="0.499974" x1="1.004389" id="linearGradient4791"/>
  <linearGradient y2="0.499966" x2="-0.023647" y1="0.499966" x1="1.023655" id="linearGradient4793"/>
  <linearGradient y2="0.500022" x2="-0.033355" y1="0.500022" x1="1.033282" id="linearGradient4795"/>
  <linearGradient y2="0.499974" x2="-0.004437" y1="0.499974" x1="1.004389" id="linearGradient4797"/>
  <linearGradient y2="0.499966" x2="-0.023647" y1="0.499966" x1="1.023655" id="linearGradient4799"/>
  <linearGradient y2="0.500022" x2="-0.033355" y1="0.500022" x1="1.033282" id="linearGradient4801"/>
  <linearGradient y2="0.96094" x2="0.540001" y1="0.03906" x1="0.540001" id="linearGradient5458"/>
  <linearGradient y2="0.367187" x2="0.159996" y1="0.718751" x1="0.700002" id="linearGradient5460"/>
  <linearGradient y2="0.007813" x2="0.58" y1="0.007813" x1="0.34" id="linearGradient5462"/>
  <linearGradient y2="0.96094" x2="0.540001" y1="0.03906" x1="0.540001" id="linearGradient5472"/>
  <linearGradient y2="0.367187" x2="0.159996" y1="0.718751" x1="0.700002" id="linearGradient5474"/>
  <linearGradient y2="0.007813" x2="0.58" y1="0.007813" x1="0.34" id="linearGradient5476"/>
  <linearGradient y2="0.96094" x2="0.540001" y1="0.03906" x1="0.540001" id="linearGradient5534"/>
  <linearGradient y2="0.367187" x2="0.159996" y1="0.718751" x1="0.700002" id="linearGradient5536"/>
  <linearGradient y2="0.007813" x2="0.58" y1="0.007813" x1="0.34" id="linearGradient5538"/>
  <linearGradient y2="0.96094" x2="0.540001" y1="0.03906" x1="0.540001" id="linearGradient5540"/>
  <linearGradient y2="0.367187" x2="0.159996" y1="0.718751" x1="0.700002" id="linearGradient5542"/>
  <linearGradient y2="0.007813" x2="0.58" y1="0.007813" x1="0.34" id="linearGradient5544"/>
  <linearGradient y2="0.96094" x2="0.540001" y1="0.03906" x1="0.540001" id="linearGradient5546"/>
  <linearGradient y2="0.367187" x2="0.159996" y1="0.718751" x1="0.700002" id="linearGradient5548"/>
  <linearGradient y2="0.007813" x2="0.58" y1="0.007813" x1="0.34" id="linearGradient5550"/>
  <linearGradient y2="0.96094" x2="0.540001" y1="0.03906" x1="0.540001" id="linearGradient5576"/>
  <linearGradient y2="0.367187" x2="0.159996" y1="0.718751" x1="0.700002" id="linearGradient5578"/>
  <linearGradient y2="0.007813" x2="0.58" y1="0.007813" x1="0.34" id="linearGradient5580"/>
  <linearGradient y2="0.96094" x2="0.540001" y1="0.03906" x1="0.540001" id="linearGradient5582"/>
  <linearGradient y2="0.367187" x2="0.159996" y1="0.718751" x1="0.700002" id="linearGradient5584"/>
  <linearGradient y2="0.007813" x2="0.58" y1="0.007813" x1="0.34" id="linearGradient5586"/>
  <linearGradient y2="0.96094" x2="0.540001" y1="0.03906" x1="0.540001" id="linearGradient5588"/>
  <linearGradient y2="0.367187" x2="0.159996" y1="0.718751" x1="0.700002" id="linearGradient5590"/>
  <linearGradient y2="0.007813" x2="0.58" y1="0.007813" x1="0.34" id="linearGradient5592"/>
  <linearGradient y2="0.96094" x2="0.540001" y1="0.03906" x1="0.540001" id="linearGradient5618"/>
  <linearGradient y2="0.367187" x2="0.159996" y1="0.718751" x1="0.700002" id="linearGradient5620"/>
  <linearGradient y2="0.007813" x2="0.58" y1="0.007813" x1="0.34" id="linearGradient5622"/>
  <linearGradient y2="0.96094" x2="0.540001" y1="0.03906" x1="0.540001" id="linearGradient5624"/>
  <linearGradient y2="0.367187" x2="0.159996" y1="0.718751" x1="0.700002" id="linearGradient5626"/>
  <linearGradient y2="0.007813" x2="0.58" y1="0.007813" x1="0.34" id="linearGradient5628"/>
  <linearGradient y2="0.96094" x2="0.540001" y1="0.03906" x1="0.540001" id="linearGradient5630"/>
  <linearGradient y2="0.367187" x2="0.159996" y1="0.718751" x1="0.700002" id="linearGradient5632"/>
  <linearGradient y2="0.007813" x2="0.58" y1="0.007813" x1="0.34" id="linearGradient5634"/>
  <linearGradient y2="0.96094" x2="0.540001" y1="0.03906" x1="0.540001" id="linearGradient5660"/>
  <linearGradient y2="0.367187" x2="0.159996" y1="0.718751" x1="0.700002" id="linearGradient5662"/>
  <linearGradient y2="0.007813" x2="0.58" y1="0.007813" x1="0.34" id="linearGradient5664"/>
  <linearGradient y2="0.96094" x2="0.540001" y1="0.03906" x1="0.540001" id="linearGradient5666"/>
  <linearGradient y2="0.367187" x2="0.159996" y1="0.718751" x1="0.700002" id="linearGradient5668"/>
  <linearGradient y2="0.007813" x2="0.58" y1="0.007813" x1="0.34" id="linearGradient5670"/>
  <linearGradient y2="0.96094" x2="0.540001" y1="0.03906" x1="0.540001" id="linearGradient5672"/>
  <linearGradient y2="0.367187" x2="0.159996" y1="0.718751" x1="0.700002" id="linearGradient5674"/>
  <linearGradient y2="0.007813" x2="0.58" y1="0.007813" x1="0.34" id="linearGradient5676"/>
  <linearGradient y2="0.96094" x2="0.540001" y1="0.03906" x1="0.540001" id="linearGradient5734"/>
  <linearGradient y2="0.367187" x2="0.159996" y1="0.718751" x1="0.700002" id="linearGradient5736"/>
  <linearGradient y2="0.007813" x2="0.58" y1="0.007813" x1="0.34" id="linearGradient5738"/>
  <linearGradient y2="0.96094" x2="0.540001" y1="0.03906" x1="0.540001" id="linearGradient5740"/>
  <linearGradient y2="0.367187" x2="0.159996" y1="0.718751" x1="0.700002" id="linearGradient5742"/>
  <linearGradient y2="0.007813" x2="0.58" y1="0.007813" x1="0.34" id="linearGradient5744"/>
  <linearGradient y2="0.96094" x2="0.540001" y1="0.03906" x1="0.540001" id="linearGradient5746"/>
  <linearGradient y2="0.367187" x2="0.159996" y1="0.718751" x1="0.700002" id="linearGradient5748"/>
  <linearGradient y2="0.007813" x2="0.58" y1="0.007813" x1="0.34" id="linearGradient5750"/>
  <linearGradient y2="0.96094" x2="0.540001" y1="0.03906" x1="0.540001" id="linearGradient5852"/>
  <linearGradient y2="0.367187" x2="0.159996" y1="0.718751" x1="0.700002" id="linearGradient5854"/>
  <linearGradient y2="0.007813" x2="0.58" y1="0.007813" x1="0.34" id="linearGradient5856"/>
  <linearGradient y2="0.96094" x2="0.540001" y1="0.03906" x1="0.540001" id="linearGradient5858"/>
  <linearGradient y2="0.367187" x2="0.159996" y1="0.718751" x1="0.700002" id="linearGradient5860"/>
  <linearGradient y2="0.007813" x2="0.58" y1="0.007813" x1="0.34" id="linearGradient5862"/>
  <linearGradient y2="0.96094" x2="0.540001" y1="0.03906" x1="0.540001" id="linearGradient5864"/>
  <linearGradient y2="0.367187" x2="0.159996" y1="0.718751" x1="0.700002" id="linearGradient5866"/>
  <linearGradient y2="0.007813" x2="0.58" y1="0.007813" x1="0.34" id="linearGradient5868"/>
  <linearGradient y2="0.96094" x2="0.540001" y1="0.03906" x1="0.540001" id="linearGradient5870"/>
  <linearGradient y2="0.367187" x2="0.159996" y1="0.718751" x1="0.700002" id="linearGradient5872"/>
  <linearGradient y2="0.007813" x2="0.58" y1="0.007813" x1="0.34" id="linearGradient5874"/>
  <linearGradient y2="0.96094" x2="0.540001" y1="0.03906" x1="0.540001" id="linearGradient5876"/>
  <linearGradient y2="0.367187" x2="0.159996" y1="0.718751" x1="0.700002" id="linearGradient5878"/>
  <linearGradient y2="0.007813" x2="0.58" y1="0.007813" x1="0.34" id="linearGradient5880"/>
  <linearGradient y2="0.96094" x2="0.540001" y1="0.03906" x1="0.540001" id="linearGradient5882"/>
  <linearGradient y2="0.367187" x2="0.159996" y1="0.718751" x1="0.700002" id="linearGradient5884"/>
  <linearGradient y2="0.007813" x2="0.58" y1="0.007813" x1="0.34" id="linearGradient5886"/>
  <linearGradient y2="0.96094" x2="0.540001" y1="0.03906" x1="0.540001" id="linearGradient5888"/>
  <linearGradient y2="0.367187" x2="0.159996" y1="0.718751" x1="0.700002" id="linearGradient5890"/>
  <linearGradient y2="0.007813" x2="0.58" y1="0.007813" x1="0.34" id="linearGradient5892"/>
  <linearGradient y2="0.96094" x2="0.540001" y1="0.03906" x1="0.540001" id="linearGradient5894"/>
  <linearGradient y2="0.367187" x2="0.159996" y1="0.718751" x1="0.700002" id="linearGradient5896"/>
  <linearGradient y2="0.007813" x2="0.58" y1="0.007813" x1="0.34" id="linearGradient5898"/>
  <linearGradient y2="0.96094" x2="0.540001" y1="0.03906" x1="0.540001" id="linearGradient5900"/>
  <linearGradient y2="0.367187" x2="0.159996" y1="0.718751" x1="0.700002" id="linearGradient5902"/>
  <linearGradient y2="0.007813" x2="0.58" y1="0.007813" x1="0.34" id="linearGradient5904"/>
  <linearGradient y2="0.96094" x2="0.540001" y1="0.03906" x1="0.540001" id="linearGradient5906"/>
  <linearGradient y2="0.367187" x2="0.159996" y1="0.718751" x1="0.700002" id="linearGradient5908"/>
  <linearGradient y2="0.007813" x2="0.58" y1="0.007813" x1="0.34" id="linearGradient5910"/>
 </defs>
 <metadata id="metadata3870">image/svg+xmlTreasure Map2006 MayNathan EadyGalion Public LibraryOpen Clip Art Library</metadata>
 <g>
  <title>Layer 1</title>
  <g id="layer1">
   <path fill="#f0ce64" fill-rule="evenodd" stroke="#803600" stroke-width="11.2" stroke-linejoin="round" stroke-miterlimit="4" id="path3873" d="m15.71429,243.790756c27.61905,-30.952393 109.736577,-64.526642 142.857137,-82.857147c93.964279,-52.004318 208.09523,-129.047619 271.428574,-149.999999c0,34.761901 11.946075,59.438613 28.571442,91.428573c38.286835,73.670288 86.303864,145.68132 142.857147,204.285706c35.351501,36.633698 88.571411,54.285736 132.857117,81.428589c-70.952393,37.619049 -141.904785,75.238098 -212.857117,112.857147c-8.571472,-11.428589 -52.937164,-7.001801 -72.857147,-17.142883c-6.270508,-3.19223 -15.238098,-10.952362 -17.142883,-18.571411c-0.952362,10.952362 2.911011,21.267639 8.571442,28.571411c9.101471,11.743835 38.571442,9.047638 47.142853,24.285736c-80.952362,38.095215 -161.904755,76.190491 -242.857147,114.285706c4.761917,-19.523804 3.271667,-37.315491 -7.142853,-45.714294c-19.109283,-15.410706 -48.057938,-20.424255 -64.285706,-38.571411c-28.057953,-31.376648 -52.147034,-70.793365 -68.571434,-110c-13.099411,-31.269562 -6.051041,-70.830872 -20,-101.428589c-15.574852,-34.164185 -32.857143,-70.476196 -68.571424,-92.857132z"/>
   <path fill="#1590db" fill-opacity="0.415301" fill-rule="evenodd" stroke-width="11.2" stroke-linejoin="round" stroke-miterlimit="4" id="path4636" d="m445.1875,505.84375c12.117767,4.215973 24.937714,1.090912 30.90625,11.59375c-12.645264,5.890198 -20.854706,7.891052 -33.5,13.78125c1.762268,-12.673157 4.354706,-17.203125 2.59375,-25.375zm2.65625,-24.1875c-6.270508,-3.19223 -15.220245,-10.974701 -17.125,-18.59375c-0.952393,10.952362 2.902069,21.289948 8.5625,28.59375c9.101471,11.743835 38.584808,9.043152 47.15625,24.28125c-80.952393,38.095276 -161.922607,76.186035 -242.875,114.28125c4.761917,-19.523865 3.28952,-37.319946 -7.125,-45.71875c-19.109283,-15.410706 -48.053482,-20.415344 -64.28125,-38.5625c-28.057938,-31.376587 -52.16935,-70.793365 -68.59375,-110c-13.099403,-31.269562 -6.051041,-70.839783 -20,-101.4375c-15.574837,-34.164185 -32.848209,-70.462799 -68.5625,-92.84375c27.619049,-30.952393 109.72319,-64.544495 142.84375,-82.875c33.12056,-18.330505 20.149094,-18.202423 31.03125,-9.21875c10.882156,8.983673 23.724457,17.667358 27.625,29.25c8.376877,24.875107 -4.176453,13.808945 -6.96875,33.15625c-2.792297,19.347305 3.491333,18.998154 -4.1875,44.21875c-7.678802,25.220581 -26.53125,25.593628 -26.53125,56.6875c0,31.093903 8.032303,43.189117 26.53125,67.71875c18.498947,24.529633 23.385208,41.085114 47.46875,30.375c24.083557,-10.710114 20.571747,-55.630127 48.84375,-73.25c28.271973,-17.619873 37.374146,-14.493134 64.25,2.78125c26.875854,17.274353 31.064972,36.977295 43.28125,66.34375c12.216278,29.366425 1.025024,38.687439 5.5625,51.125c2.538055,6.957001 6.329346,7.88385 13.53125,12.375c-1.116913,-4.162018 0.7229,-7.110199 1.125,-11.6875c1.861542,7.370422 10.621796,14.880676 16.75,17.96875c19.467834,9.81012 21.607483,15.172333 1.6875,5.03125z"/>
   <path fill="#7f7f00" fill-rule="evenodd" stroke="#a56c00" stroke-width="6.222857" stroke-miterlimit="4" id="path4625" d="m419.674347,21.676929c-4.795776,1.79191 -9.791687,3.834291 -15.05658,6.13673c2.605621,12.09705 6.082001,26.63044 -4.122986,26.209549c-15.79892,-0.651588 -22.636169,-5.266178 -32.556427,-8.343529c-53.312683,27.94278 -118.880402,68.9776 -179.365631,103.477852c10.882172,8.983673 23.708267,17.649933 27.60881,29.232574c8.376877,24.875107 -4.17099,13.815186 -6.963287,33.162491c-2.792282,19.34729 3.494751,19.006149 -4.184082,44.22673c-7.678802,25.220581 -26.539886,25.587677 -26.539886,56.681549c0,31.093903 8.040939,43.185944 26.539886,67.715576c18.498962,24.529633 23.37674,41.091431 47.460281,30.381317c24.083557,-10.710114 20.59317,-55.627808 48.865143,-73.247681c28.272003,-17.619904 37.351288,-14.493195 64.227142,2.781158c26.875824,17.274384 31.059906,36.958557 43.276184,66.324982c12.216309,29.366455 1.051483,38.711884 5.588959,51.149445c2.538086,6.957031 6.302856,7.858246 13.504761,12.349396c-1.116913,-4.161987 0.752686,-7.107025 1.154785,-11.684326c1.861542,7.370392 10.608124,14.898865 16.736328,17.986938c19.467834,9.81015 62.844055,5.510529 71.220917,16.566132c65.084778,-34.157104 130.162109,-68.292908 195.246826,-102.450012c-0.164551,-1.551361 -0.247192,-3.077087 -0.488647,-4.655457c-0.547424,-3.578644 -1.267456,-7.19928 -2.137817,-10.852631c-39.736694,-21.653473 -83.897095,-38.657959 -114.436096,-69.982819c-55.269653,-56.691879 -102.214325,-126.348511 -139.632172,-197.614594c-14.423676,-27.471344 -25.177643,-49.414883 -27.425568,-77.510141c-3.187531,-3.125341 -6.053864,-5.84667 -8.520844,-8.041231zm25.194885,483.74519c1.760956,8.171875 -0.823761,12.692261 -2.586029,25.365417c12.645264,-5.890198 20.843781,-7.885681 33.489044,-13.775879c-5.968506,-10.502869 -18.785248,-7.373566 -30.903015,-11.589539z"/>
   <g transform="matrix(6.633023e-2,-1.587628e-2,5.240244e-3,2.189345e-2,457.5477,338.6646)" id="g5636">
    <path fill="url(#linearGradient5660)" fill-rule="evenodd" stroke-width="1.0000000pt" id="path5638" d="m220.186157,24.000931c-8.092468,0.571301 -72.664337,106.715805 -87.15625,176.5625c-21.52774,125.415817 -31.825867,285.194138 -50.9375,410.968735c-5.671005,29.099426 -3.29776,64.858582 3.8125,82.34375c7.230591,23.69812 27.770599,48.489075 52.34375,62.8125c29.992676,19.426453 52.515442,18.901245 81.75,19.28125c0.153442,0.094604 0.354156,0.118286 0.53125,0c30.618164,-0.034363 53.486298,-1.237976 81.75,-19.28125c24.573151,-14.323425 45.113159,-39.11438 52.34375,-62.8125c7.110229,-17.485168 9.483521,-53.244324 3.8125,-82.34375c-19.111633,-125.774597 -29.409729,-285.552948 -50.9375,-410.968735c-14.491913,-69.84671 -79.063782,-175.991199 -87.15625,-176.5625c-0.027466,-0.001942 -0.117584,-0.002731 -0.15625,0z"/>
    <path fill="url(#linearGradient5662)" fill-rule="evenodd" stroke-width="1.0000000pt" id="path5640" d="m220.186157,22.118351c-8.092468,0.571301 -72.664337,106.715801 -87.15625,176.562496c-21.52774,125.415802 -31.825867,285.194153 -50.9375,410.96875c-5.671005,29.099365 -3.29776,64.858582 3.8125,82.34375c7.230591,23.69812 27.770599,48.489075 52.34375,62.8125c29.992676,19.426453 52.515442,18.901245 81.75,19.28125c0.153442,0.094604 0.354156,0.118286 0.53125,0c30.618164,-0.034363 53.486298,-1.237976 81.75,-19.28125c24.573181,-14.323425 45.113159,-39.11438 52.34375,-62.8125c7.110229,-17.485168 9.483521,-53.244385 3.8125,-82.34375c-19.111694,-125.774597 -29.40976,-285.552948 -50.9375,-410.96875c-14.491913,-69.84671 -79.063782,-175.991196 -87.15625,-176.562496c-0.027466,-0.001942 -0.117584,-0.002731 -0.15625,0z"/>
    <path fill="url(#linearGradient5664)" fill-rule="evenodd" stroke-width="1.1043777pt" stroke-opacity="0.463636" id="path5642" d="m190.5625,772.75l-9.78125,223.4375c84.897919,0 84.875,0 84.875,0l-14.875,-223.4375l-60.21875,0z"/>
   </g>
   <text font-size="165.81453px" font-style="normal" font-weight="normal" text-anchor="start" fill="#7f0000" stroke-width="1px" font-family="Balthazar" transform="matrix(0.754719, -0.866724, 0.70056, 0.520469, 0, 0)" id="text4621" y="844.052" x="-17.457268" xml:space="preserve">
    <tspan y="844.052" x="-17.457268" id="tspan4623">X</tspan>
   </text>
   <g transform="matrix(-0.436890,0.000000,0.000000,0.550350,379.7296,150.9668)" id="g4674">
    <path fill="url(#linearGradient4679)" fill-rule="evenodd" stroke="#674605" stroke-width="3.25" stroke-linecap="round" stroke-miterlimit="4" d="m87.14286,93.790756c9.464279,-7.142853 16.964279,-21.964287 37.85714,-28.571434c20.892853,-6.607143 26.785721,-5.535713 45.714294,2.14286c18.928558,7.678574 22.5,21.428574 30,28.571426" id="path4664"/>
    <path fill="url(#linearGradient4681)" fill-rule="evenodd" stroke="#674605" stroke-width="3.25" stroke-linecap="round" stroke-linejoin="round" stroke-miterlimit="4" d="m60.136139,95.846657c8.131248,-6.078156 8.585014,-16.425354 20.982208,-21.958946c12.397209,-5.5336 19.564491,-5.93425 28.60659,-0.17543c9.042091,5.758827 14.328415,15.642776 19.104546,20.857033" id="path4644"/>
    <path fill="url(#linearGradient4683)" fill-rule="evenodd" stroke="#674605" stroke-width="3.6775" stroke-linecap="round" stroke-linejoin="round" stroke-miterlimit="4" d="m164.178375,94.518112c-6.638397,-4.718079 -7.20166,-13.007866 -17.2509,-17.207016c-10.04924,-4.199142 -15.805161,-4.382393 -22.946045,0.4104c-7.140877,4.792816 -11.19014,12.82164 -14.920174,17.095512" id="path4646"/>
   </g>
   <g transform="matrix(-0.436890,0.000000,0.000000,0.550350,416.2672,161.3577)" id="g4685">
    <path fill="url(#linearGradient4693)" fill-rule="evenodd" stroke="#674605" stroke-width="3.25" stroke-linecap="round" stroke-miterlimit="4" d="m87.14286,93.790756c9.464279,-7.142853 16.964279,-21.964287 37.85714,-28.571434c20.892853,-6.607143 26.785721,-5.535713 45.714294,2.14286c18.928558,7.678574 22.5,21.428574 30,28.571426" id="path4687"/>
    <path fill="url(#linearGradient4695)" fill-rule="evenodd" stroke="#674605" stroke-width="3.25" stroke-linecap="round" stroke-linejoin="round" stroke-miterlimit="4" d="m60.136139,95.846657c8.131248,-6.078156 8.585014,-16.425354 20.982208,-21.958946c12.397209,-5.5336 19.564491,-5.93425 28.60659,-0.17543c9.042091,5.758827 14.328415,15.642776 19.104546,20.857033" id="path4689"/>
    <path fill="url(#linearGradient4697)" fill-rule="evenodd" stroke="#674605" stroke-width="3.6775" stroke-linecap="round" stroke-linejoin="round" stroke-miterlimit="4" d="m164.178375,94.518112c-6.638397,-4.718079 -7.20166,-13.007866 -17.2509,-17.207016c-10.04924,-4.199142 -15.805161,-4.382393 -22.946045,0.4104c-7.140877,4.792816 -11.19014,12.82164 -14.920174,17.095512" id="path4691"/>
   </g>
   <g transform="matrix(-0.436890,0.000000,0.000000,0.550350,343.4101,157.0720)" id="g4699">
    <path fill="url(#linearGradient4707)" fill-rule="evenodd" stroke="#674605" stroke-width="3.25" stroke-linecap="round" stroke-miterlimit="4" d="m87.14286,93.790756c9.464279,-7.142853 16.964279,-21.964287 37.85714,-28.571434c20.892853,-6.607143 26.785721,-5.535713 45.714294,2.14286c18.928558,7.678574 22.5,21.428574 30,28.571426" id="path4701"/>
    <path fill="url(#linearGradient4709)" fill-rule="evenodd" stroke="#674605" stroke-width="3.25" stroke-linecap="round" stroke-linejoin="round" stroke-miterlimit="4" d="m60.136139,95.846657c8.131248,-6.078156 8.585014,-16.425354 20.982208,-21.958946c12.397209,-5.5336 19.564491,-5.93425 28.60659,-0.17543c9.042091,5.758827 14.328415,15.642776 19.104546,20.857033" id="path4703"/>
    <path fill="url(#linearGradient4711)" fill-rule="evenodd" stroke="#674605" stroke-width="3.6775" stroke-linecap="round" stroke-linejoin="round" stroke-miterlimit="4" d="m164.178375,94.518112c-6.638397,-4.718079 -7.20166,-13.007866 -17.2509,-17.207016c-10.04924,-4.199142 -15.805161,-4.382393 -22.946045,0.4104c-7.140877,4.792816 -11.19014,12.82164 -14.920174,17.095512" id="path4705"/>
   </g>
   <g transform="matrix(-0.436890,0.000000,0.000000,0.550350,385.5529,164.9291)" id="g4713">
    <path fill="url(#linearGradient4721)" fill-rule="evenodd" stroke="#674605" stroke-width="3.25" stroke-linecap="round" stroke-miterlimit="4" d="m87.14286,93.790756c9.464279,-7.142853 16.964279,-21.964287 37.85714,-28.571434c20.892853,-6.607143 26.785721,-5.535713 45.714294,2.14286c18.928558,7.678574 22.5,21.428574 30,28.571426" id="path4715"/>
    <path fill="url(#linearGradient4723)" fill-rule="evenodd" stroke="#674605" stroke-width="3.25" stroke-linecap="round" stroke-linejoin="round" stroke-miterlimit="4" d="m60.136139,95.846657c8.131248,-6.078156 8.585014,-16.425354 20.982208,-21.958946c12.397209,-5.5336 19.564491,-5.93425 28.60659,-0.17543c9.042091,5.758827 14.328415,15.642776 19.104546,20.857033" id="path4717"/>
    <path fill="url(#linearGradient4725)" fill-rule="evenodd" stroke="#674605" stroke-width="3.6775" stroke-linecap="round" stroke-linejoin="round" stroke-miterlimit="4" d="m164.178375,94.518112c-6.638397,-4.718079 -7.20166,-13.007866 -17.2509,-17.207016c-10.04924,-4.199142 -15.805161,-4.382393 -22.946045,0.4104c-7.140877,4.792816 -11.19014,12.82164 -14.920174,17.095512" id="path4719"/>
   </g>
   <g transform="matrix(-0.436890,0.000000,0.000000,0.550350,352.6957,169.9292)" id="g4727">
    <path fill="url(#linearGradient4735)" fill-rule="evenodd" stroke="#674605" stroke-width="3.25" stroke-linecap="round" stroke-miterlimit="4" d="m87.14286,93.790756c9.464279,-7.142853 16.964279,-21.964287 37.85714,-28.571434c20.892853,-6.607143 26.785721,-5.535713 45.714294,2.14286c18.928558,7.678574 22.5,21.428574 30,28.571426" id="path4729"/>
    <path fill="url(#linearGradient4737)" fill-rule="evenodd" stroke="#674605" stroke-width="3.25" stroke-linecap="round" stroke-linejoin="round" stroke-miterlimit="4" d="m60.136139,95.846657c8.131248,-6.078156 8.585014,-16.425354 20.982208,-21.958946c12.397209,-5.5336 19.564491,-5.93425 28.60659,-0.17543c9.042091,5.758827 14.328415,15.642776 19.104546,20.857033" id="path4731"/>
    <path fill="url(#linearGradient4739)" fill-rule="evenodd" stroke="#674605" stroke-width="3.6775" stroke-linecap="round" stroke-linejoin="round" stroke-miterlimit="4" d="m164.178375,94.518112c-6.638397,-4.718079 -7.20166,-13.007866 -17.2509,-17.207016c-10.04924,-4.199142 -15.805161,-4.382393 -22.946045,0.4104c-7.140877,4.792816 -11.19014,12.82164 -14.920174,17.095512" id="path4733"/>
   </g>
   <g transform="matrix(-0.436890,0.000000,0.000000,0.550350,509.1244,406.3577)" id="g4741">
    <path fill="url(#linearGradient4749)" fill-rule="evenodd" stroke="#674605" stroke-width="3.25" stroke-linecap="round" stroke-miterlimit="4" d="m87.14286,93.790756c9.464279,-7.142853 16.964279,-21.964287 37.85714,-28.571434c20.892853,-6.607143 26.785721,-5.535713 45.714294,2.14286c18.928558,7.678574 22.5,21.428574 30,28.571426" id="path4743"/>
    <path fill="url(#linearGradient4751)" fill-rule="evenodd" stroke="#674605" stroke-width="3.25" stroke-linecap="round" stroke-linejoin="round" stroke-miterlimit="4" d="m60.136139,95.846657c8.131248,-6.078156 8.585014,-16.425354 20.982208,-21.958946c12.397209,-5.5336 19.564491,-5.93425 28.60659,-0.17543c9.042091,5.758827 14.328415,15.642776 19.104546,20.857033" id="path4745"/>
    <path fill="url(#linearGradient4753)" fill-rule="evenodd" stroke="#674605" stroke-width="3.6775" stroke-linecap="round" stroke-linejoin="round" stroke-miterlimit="4" d="m164.178375,94.518112c-6.638397,-4.718079 -7.20166,-13.007866 -17.2509,-17.207016c-10.04924,-4.199142 -15.805161,-4.382393 -22.946045,0.4104c-7.140877,4.792816 -11.19014,12.82164 -14.920174,17.095512" id="path4747"/>
   </g>
   <g id="g4778">
    <path fill="url(#linearGradient4797)" fill-rule="evenodd" stroke="#674605" stroke-width="1.593635" stroke-linecap="round" stroke-miterlimit="4" d="m508.565765,468.689789c-4.134857,-3.931091 -7.41153,-12.088043 -16.539398,-15.724304c-9.127899,-3.63623 -11.702423,-3.04657 -19.972137,1.179352c-8.269684,4.225891 -9.830017,11.793182 -13.106689,15.724274" id="path4757"/>
    <path fill="url(#linearGradient4799)" fill-rule="evenodd" stroke="#674605" stroke-width="1.593635" stroke-linecap="round" stroke-linejoin="round" stroke-miterlimit="4" d="m477.160034,469.821259c-3.55246,-3.345123 -3.750732,-9.039703 -9.166931,-12.085114c-5.416199,-3.04541 -8.547546,-3.2659 -12.497925,-0.096558c-3.950409,3.169373 -6.259949,8.609009 -8.346588,11.478668" id="path4759"/>
    <path fill="url(#linearGradient4801)" fill-rule="evenodd" stroke="#674605" stroke-width="1.80326" stroke-linecap="round" stroke-linejoin="round" stroke-miterlimit="4" d="m468.523468,469.090088c2.900238,-2.596588 3.146332,-7.158875 7.536743,-9.469879c4.390411,-2.311005 6.905121,-2.411865 10.024902,0.225861c3.119781,2.637726 4.888855,7.056396 6.518463,9.408508" id="path4761"/>
   </g>
   <g id="g4783">
    <path fill="url(#linearGradient4791)" fill-rule="evenodd" stroke="#674605" stroke-width="1.593635" stroke-linecap="round" stroke-miterlimit="4" d="m379.28006,225.832642c-4.134857,-3.931091 -7.41153,-12.088043 -16.539398,-15.724304c-9.127899,-3.63623 -11.702423,-3.04657 -19.972137,1.179352c-8.269684,4.225891 -9.830017,11.793182 -13.106689,15.724274" id="path4785"/>
    <path fill="url(#linearGradient4793)" fill-rule="evenodd" stroke="#674605" stroke-width="1.593635" stroke-linecap="round" stroke-linejoin="round" stroke-miterlimit="4" d="m347.874329,226.964111c-3.55246,-3.345123 -3.750732,-9.039703 -9.166931,-12.085114c-5.416199,-3.04541 -8.547546,-3.2659 -12.497925,-0.096558c-3.950409,3.169373 -6.259949,8.609009 -8.346588,11.478668" id="path4787"/>
    <path fill="url(#linearGradient4795)" fill-rule="evenodd" stroke="#674605" stroke-width="1.80326" stroke-linecap="round" stroke-linejoin="round" stroke-miterlimit="4" d="m339.237762,226.232941c2.900238,-2.596588 3.146332,-7.158875 7.536743,-9.469879c4.390411,-2.311005 6.905121,-2.411865 10.024902,0.225861c3.119781,2.637726 4.888855,7.056396 6.518463,9.408508" id="path4789"/>
   </g>
   <g transform="matrix(6.633023e-2,-1.587628e-2,5.240244e-3,2.189345e-2,448.0788,279.3550)" id="g7803">
    <path fill="url(#linearGradient2189)" fill-rule="evenodd" stroke-width="1.0000000pt" id="path909" d="m220.186157,24.000931c-8.092468,0.571301 -72.664337,106.715805 -87.15625,176.5625c-21.52774,125.415817 -31.825867,285.194138 -50.9375,410.968735c-5.671005,29.099426 -3.29776,64.858582 3.8125,82.34375c7.230591,23.69812 27.770599,48.489075 52.34375,62.8125c29.992676,19.426453 52.515442,18.901245 81.75,19.28125c0.153442,0.094604 0.354156,0.118286 0.53125,0c30.618164,-0.034363 53.486298,-1.237976 81.75,-19.28125c24.573151,-14.323425 45.113159,-39.11438 52.34375,-62.8125c7.110229,-17.485168 9.483521,-53.244324 3.8125,-82.34375c-19.111633,-125.774597 -29.409729,-285.552948 -50.9375,-410.968735c-14.491913,-69.84671 -79.063782,-175.991199 -87.15625,-176.5625c-0.027466,-0.001942 -0.117584,-0.002731 -0.15625,0z"/>
    <path fill="url(#linearGradient5301)" fill-rule="evenodd" stroke-width="1.0000000pt" id="path4679" d="m220.186157,22.118351c-8.092468,0.571301 -72.664337,106.715801 -87.15625,176.562496c-21.52774,125.415802 -31.825867,285.194153 -50.9375,410.96875c-5.671005,29.099365 -3.29776,64.858582 3.8125,82.34375c7.230591,23.69812 27.770599,48.489075 52.34375,62.8125c29.992676,19.426453 52.515442,18.901245 81.75,19.28125c0.153442,0.094604 0.354156,0.118286 0.53125,0c30.618164,-0.034363 53.486298,-1.237976 81.75,-19.28125c24.573181,-14.323425 45.113159,-39.11438 52.34375,-62.8125c7.110229,-17.485168 9.483521,-53.244385 3.8125,-82.34375c-19.111694,-125.774597 -29.40976,-285.552948 -50.9375,-410.96875c-14.491913,-69.84671 -79.063782,-175.991196 -87.15625,-176.562496c-0.027466,-0.001942 -0.117584,-0.002731 -0.15625,0z"/>
    <path fill="url(#linearGradient3432)" fill-rule="evenodd" stroke-width="1.1043777pt" stroke-opacity="0.463636" id="path1545" d="m190.5625,772.75l-9.78125,223.4375c84.897919,0 84.875,0 84.875,0l-14.875,-223.4375l-60.21875,0z"/>
   </g>
   <g id="g5520">
    <g id="g5478" transform="matrix(0.0663302, -0.0158763, 0.00524024, 0.0218934, 574.691, 158.665)">
     <path fill="url(#linearGradient5534)" fill-rule="evenodd" stroke-width="1.0000000pt" d="m-2432.205566,5245.584961c-8.092773,0.571289 -72.664551,106.71582 -87.15625,176.5625c-21.527832,125.416016 -31.826172,285.194336 -50.9375,410.96875c-5.670898,29.099609 -3.297852,64.858398 3.8125,82.34375c7.230469,23.698242 27.770508,48.489258 52.34375,62.8125c29.992676,19.42627 52.515137,18.901367 81.75,19.28125c0.15332,0.094727 0.354004,0.118164 0.53125,0c30.618164,-0.03418 53.486328,-1.237793 81.75,-19.28125c24.573242,-14.323242 45.112793,-39.114258 52.34375,-62.8125c7.109863,-17.485352 9.483398,-53.244141 3.8125,-82.34375c-19.111816,-125.774414 -29.409668,-285.552734 -50.9375,-410.96875c-14.492188,-69.84668 -79.063965,-175.991211 -87.15625,-176.5625c-0.027832,-0.001953 -0.117676,-0.00293 -0.15625,0z" id="path5480"/>
     <path fill="url(#linearGradient5536)" fill-rule="evenodd" stroke-width="1.0000000pt" d="m-2432.205566,5243.702148c-8.092773,0.571289 -72.664551,106.71582 -87.15625,176.5625c-21.527832,125.416016 -31.826172,285.194336 -50.9375,410.96875c-5.670898,29.099609 -3.297852,64.858887 3.8125,82.34375c7.230469,23.698242 27.770508,48.489258 52.34375,62.8125c29.992676,19.426758 52.515137,18.901367 81.75,19.28125c0.15332,0.094727 0.354004,0.118652 0.53125,0c30.618164,-0.03418 53.486328,-1.237793 81.75,-19.28125c24.573242,-14.323242 45.112793,-39.114258 52.34375,-62.8125c7.109863,-17.484863 9.483398,-53.244141 3.8125,-82.34375c-19.111816,-125.774414 -29.409668,-285.552734 -50.9375,-410.96875c-14.492188,-69.84668 -79.063965,-175.991211 -87.15625,-176.5625c-0.027832,-0.001465 -0.117676,-0.002441 -0.15625,0z" id="path5482"/>
     <path fill="url(#linearGradient5538)" fill-rule="evenodd" stroke-width="1.1043777pt" stroke-opacity="0.463636" d="m-2461.829346,5994.333984l-9.78125,223.4375c84.897949,0 84.875,0 84.875,0l-14.875,-223.4375l-60.21875,0z" id="path5484"/>
    </g>
    <g id="g5486" transform="matrix(0.078902, -0.0210401, 0.00623344, 0.0290143, 564.138, 173.981)">
     <path fill="url(#linearGradient5540)" fill-rule="evenodd" stroke-width="1.0000000pt" d="m-1963.626343,3831.8125c-8.092529,0.571289 -72.664307,106.71582 -87.156372,176.5625c-21.527588,125.416016 -31.825684,285.194336 -50.9375,410.96875c-5.670898,29.099609 -3.297607,64.858398 3.8125,82.34375c7.230713,23.698242 27.770752,48.489258 52.343872,62.8125c29.992676,19.42627 52.515381,18.901367 81.75,19.28125c0.153442,0.094727 0.354126,0.118164 0.53125,0c30.618164,-0.03418 53.486328,-1.237793 81.75,-19.28125c24.57312,-14.323242 45.113159,-39.114258 52.34375,-62.8125c7.110229,-17.485352 9.483521,-53.244141 3.8125,-82.34375c-19.111572,-125.774414 -29.409668,-285.552734 -50.9375,-410.96875c-14.491943,-69.84668 -79.063721,-175.991211 -87.15625,-176.5625c-0.027466,-0.001953 -0.117554,-0.002686 -0.15625,0z" id="path5488"/>
     <path fill="url(#linearGradient5542)" fill-rule="evenodd" stroke-width="1.0000000pt" d="m-1963.626343,3829.929932c-8.092529,0.571289 -72.664307,106.71582 -87.156372,176.5625c-21.527588,125.415771 -31.825684,285.194092 -50.9375,410.968506c-5.670898,29.099609 -3.297607,64.858887 3.8125,82.34375c7.230713,23.698242 27.770752,48.489258 52.343872,62.8125c29.992676,19.426758 52.515381,18.901367 81.75,19.28125c0.153442,0.094727 0.354126,0.118652 0.53125,0c30.618164,-0.03418 53.486328,-1.237793 81.75,-19.28125c24.573242,-14.323242 45.113159,-39.114258 52.34375,-62.8125c7.110229,-17.484863 9.483521,-53.244141 3.8125,-82.34375c-19.111694,-125.774414 -29.40979,-285.552734 -50.9375,-410.968506c-14.491943,-69.84668 -79.063721,-175.991211 -87.15625,-176.5625c-0.027466,-0.001953 -0.117554,-0.002686 -0.15625,0z" id="path5490"/>
     <path fill="url(#linearGradient5544)" fill-rule="evenodd" stroke-width="1.1043777pt" stroke-opacity="0.463636" d="m-1993.25,4580.561523l-9.78125,223.4375c84.897949,0 84.875,0 84.875,0l-14.875,-223.4375l-60.21875,0z" id="path5492"/>
    </g>
    <g id="g5494" transform="matrix(0.0779586, -0.0263016, 0.0102025, 0.0250832, 583.608, 162.105)">
     <path fill="url(#linearGradient5546)" fill-rule="evenodd" stroke-width="1.0000000pt" d="m-2173.292969,3750.651611c-8.092773,0.571289 -72.664551,106.71582 -87.15625,176.5625c-21.527832,125.415771 -31.826172,285.194092 -50.9375,410.968506c-5.670898,29.099609 -3.297852,64.858887 3.8125,82.34375c7.230469,23.698242 27.770508,48.489258 52.34375,62.8125c29.992676,19.426758 52.515137,18.901367 81.75,19.28125c0.15332,0.094727 0.354004,0.118652 0.53125,0c30.618164,-0.03418 53.486328,-1.237793 81.75,-19.28125c24.572998,-14.323242 45.113037,-39.114258 52.343628,-62.8125c7.110229,-17.484863 9.483521,-53.244141 3.8125,-82.34375c-19.111694,-125.774414 -29.409546,-285.552734 -50.937378,-410.968506c-14.492188,-69.84668 -79.063965,-175.991211 -87.15625,-176.5625c-0.027588,-0.001953 -0.117676,-0.002686 -0.15625,0z" id="path5496"/>
     <path fill="url(#linearGradient5548)" fill-rule="evenodd" stroke-width="1.0000000pt" d="m-2173.292969,3748.769043c-8.092773,0.571289 -72.664551,106.71582 -87.15625,176.5625c-21.527832,125.415771 -31.826172,285.194336 -50.9375,410.96875c-5.670898,29.099121 -3.297852,64.858398 3.8125,82.34375c7.230469,23.698242 27.770508,48.489258 52.34375,62.8125c29.992676,19.42627 52.515137,18.901367 81.75,19.28125c0.15332,0.094727 0.354004,0.118164 0.53125,0c30.618164,-0.03418 53.486328,-1.237793 81.75,-19.28125c24.573242,-14.323242 45.113037,-39.114258 52.343628,-62.8125c7.110229,-17.485352 9.483521,-53.244629 3.8125,-82.34375c-19.111694,-125.774414 -29.40979,-285.552979 -50.937378,-410.96875c-14.492188,-69.84668 -79.063965,-175.991211 -87.15625,-176.5625c-0.027588,-0.001953 -0.117676,-0.002686 -0.15625,0z" id="path5498"/>
     <path fill="url(#linearGradient5550)" fill-rule="evenodd" stroke-width="1.1043777pt" stroke-opacity="0.463636" d="m-2202.916748,4499.400391l-9.78125,223.4375c84.897949,0 84.875,0 84.875,0l-14.875,-223.4375l-60.21875,0z" id="path5500"/>
    </g>
   </g>
   <g transform="matrix(7.890200e-2,-2.104006e-2,6.233443e-3,2.901432e-2,437.5258,294.6712)" id="g5450">
    <path fill="url(#linearGradient5458)" fill-rule="evenodd" stroke-width="1.0000000pt" id="path5452" d="m220.186157,24.000931c-8.092468,0.571301 -72.664337,106.715805 -87.15625,176.5625c-21.52774,125.415817 -31.825867,285.194138 -50.9375,410.968735c-5.671005,29.099426 -3.29776,64.858582 3.8125,82.34375c7.230591,23.69812 27.770599,48.489075 52.34375,62.8125c29.992676,19.426453 52.515442,18.901245 81.75,19.28125c0.153442,0.094604 0.354156,0.118286 0.53125,0c30.618164,-0.034363 53.486298,-1.237976 81.75,-19.28125c24.573151,-14.323425 45.113159,-39.11438 52.34375,-62.8125c7.110229,-17.485168 9.483521,-53.244324 3.8125,-82.34375c-19.111633,-125.774597 -29.409729,-285.552948 -50.9375,-410.968735c-14.491913,-69.84671 -79.063782,-175.991199 -87.15625,-176.5625c-0.027466,-0.001942 -0.117584,-0.002731 -0.15625,0z"/>
    <path fill="url(#linearGradient5460)" fill-rule="evenodd" stroke-width="1.0000000pt" id="path5454" d="m220.186157,22.118351c-8.092468,0.571301 -72.664337,106.715801 -87.15625,176.562496c-21.52774,125.415802 -31.825867,285.194153 -50.9375,410.96875c-5.671005,29.099365 -3.29776,64.858582 3.8125,82.34375c7.230591,23.69812 27.770599,48.489075 52.34375,62.8125c29.992676,19.426453 52.515442,18.901245 81.75,19.28125c0.153442,0.094604 0.354156,0.118286 0.53125,0c30.618164,-0.034363 53.486298,-1.237976 81.75,-19.28125c24.573181,-14.323425 45.113159,-39.11438 52.34375,-62.8125c7.110229,-17.485168 9.483521,-53.244385 3.8125,-82.34375c-19.111694,-125.774597 -29.40976,-285.552948 -50.9375,-410.96875c-14.491913,-69.84671 -79.063782,-175.991196 -87.15625,-176.562496c-0.027466,-0.001942 -0.117584,-0.002731 -0.15625,0z"/>
    <path fill="url(#linearGradient5462)" fill-rule="evenodd" stroke-width="1.1043777pt" stroke-opacity="0.463636" id="path5456" d="m190.5625,772.75l-9.78125,223.4375c84.897919,0 84.875,0 84.875,0l-14.875,-223.4375l-60.21875,0z"/>
   </g>
   <g transform="matrix(7.795864e-2,-2.630158e-2,1.020246e-2,2.508320e-2,456.9965,282.7957)" id="g5464">
    <path fill="url(#linearGradient5472)" fill-rule="evenodd" stroke-width="1.0000000pt" id="path5466" d="m220.186157,24.000931c-8.092468,0.571301 -72.664337,106.715805 -87.15625,176.5625c-21.52774,125.415817 -31.825867,285.194138 -50.9375,410.968735c-5.671005,29.099426 -3.29776,64.858582 3.8125,82.34375c7.230591,23.69812 27.770599,48.489075 52.34375,62.8125c29.992676,19.426453 52.515442,18.901245 81.75,19.28125c0.153442,0.094604 0.354156,0.118286 0.53125,0c30.618164,-0.034363 53.486298,-1.237976 81.75,-19.28125c24.573151,-14.323425 45.113159,-39.11438 52.34375,-62.8125c7.110229,-17.485168 9.483521,-53.244324 3.8125,-82.34375c-19.111633,-125.774597 -29.409729,-285.552948 -50.9375,-410.968735c-14.491913,-69.84671 -79.063782,-175.991199 -87.15625,-176.5625c-0.027466,-0.001942 -0.117584,-0.002731 -0.15625,0z"/>
    <path fill="url(#linearGradient5474)" fill-rule="evenodd" stroke-width="1.0000000pt" id="path5468" d="m220.186157,22.118351c-8.092468,0.571301 -72.664337,106.715801 -87.15625,176.562496c-21.52774,125.415802 -31.825867,285.194153 -50.9375,410.96875c-5.671005,29.099365 -3.29776,64.858582 3.8125,82.34375c7.230591,23.69812 27.770599,48.489075 52.34375,62.8125c29.992676,19.426453 52.515442,18.901245 81.75,19.28125c0.153442,0.094604 0.354156,0.118286 0.53125,0c30.618164,-0.034363 53.486298,-1.237976 81.75,-19.28125c24.573181,-14.323425 45.113159,-39.11438 52.34375,-62.8125c7.110229,-17.485168 9.483521,-53.244385 3.8125,-82.34375c-19.111694,-125.774597 -29.40976,-285.552948 -50.9375,-410.96875c-14.491913,-69.84671 -79.063782,-175.991196 -87.15625,-176.562496c-0.027466,-0.001942 -0.117584,-0.002731 -0.15625,0z"/>
    <path fill="url(#linearGradient5476)" fill-rule="evenodd" stroke-width="1.1043777pt" stroke-opacity="0.463636" id="path5470" d="m190.5625,772.75l-9.78125,223.4375c84.897919,0 84.875,0 84.875,0l-14.875,-223.4375l-60.21875,0z"/>
   </g>
   <g id="g5720">
    <g id="g5678" transform="matrix(0.0663302, -0.0158763, 0.00524024, 0.0218934, 421.119, 348.665)">
     <path fill="url(#linearGradient5734)" fill-rule="evenodd" stroke-width="1.0000000pt" d="m237.250977,-192.003128c-8.092468,0.571304 -72.664337,106.715805 -87.15625,176.562499c-21.52774,125.415833 -31.825867,285.194139 -50.9375,410.968736c-5.67099,29.099426 -3.29776,64.858582 3.8125,82.34375c7.230591,23.69812 27.770599,48.489044 52.34375,62.812531c29.992676,19.426392 52.515442,18.901245 81.75,19.28125c0.153442,0.094604 0.354156,0.118286 0.53125,0c30.618164,-0.034424 53.486298,-1.238037 81.75,-19.28125c24.573181,-14.323486 45.113159,-39.11441 52.34375,-62.812531c7.110229,-17.485168 9.483521,-53.244324 3.8125,-82.34375c-19.111633,-125.774597 -29.409729,-285.552933 -50.9375,-410.968736c-14.491913,-69.846709 -79.063782,-175.991195 -87.15625,-176.562499c-0.027466,-0.001938 -0.117584,-0.002731 -0.15625,0z" id="path5680"/>
     <path fill="url(#linearGradient5736)" fill-rule="evenodd" stroke-width="1.0000000pt" d="m237.250977,-193.885712c-8.092468,0.571304 -72.664337,106.715805 -87.15625,176.5625c-21.52774,125.415817 -31.825867,285.194153 -50.9375,410.96875c-5.67099,29.099365 -3.29776,64.858582 3.8125,82.34375c7.230591,23.69812 27.770599,48.489044 52.34375,62.812531c29.992676,19.426392 52.515442,18.901245 81.75,19.28125c0.153442,0.094604 0.354156,0.118286 0.53125,0c30.618164,-0.034424 53.486298,-1.238037 81.75,-19.28125c24.573181,-14.323486 45.113159,-39.11441 52.34375,-62.812531c7.110229,-17.485168 9.483521,-53.244385 3.8125,-82.34375c-19.111694,-125.774597 -29.409729,-285.552933 -50.9375,-410.96875c-14.491913,-69.84671 -79.063782,-175.991196 -87.15625,-176.5625c-0.027466,-0.001938 -0.117584,-0.002731 -0.15625,0z" id="path5682"/>
     <path fill="url(#linearGradient5738)" fill-rule="evenodd" stroke-width="1.1043777pt" stroke-opacity="0.463636" d="m207.627319,556.745972l-9.78125,223.4375c84.897919,0 84.875,0 84.875,0l-14.875,-223.4375l-60.21875,0z" id="path5684"/>
    </g>
    <g id="g5686" transform="matrix(0.078902, -0.0210401, 0.00623344, 0.0290143, 410.566, 363.981)">
     <path fill="url(#linearGradient5740)" fill-rule="evenodd" stroke-width="1.0000000pt" d="m233.062836,-138.990112c-8.092468,0.571304 -72.664337,106.715805 -87.15625,176.5625c-21.52774,125.415833 -31.825867,285.194153 -50.9375,410.96875c-5.671021,29.099426 -3.29776,64.858582 3.8125,82.34375c7.230591,23.69812 27.770599,48.489075 52.34375,62.8125c29.992676,19.426453 52.515442,18.901245 81.75,19.28125c0.153442,0.094604 0.354156,0.118286 0.53125,0c30.618164,-0.034363 53.486298,-1.237976 81.75,-19.28125c24.573151,-14.323425 45.113129,-39.11438 52.343719,-62.8125c7.110229,-17.485168 9.483521,-53.244324 3.8125,-82.34375c-19.111633,-125.774597 -29.409729,-285.552948 -50.937469,-410.96875c-14.491913,-69.84671 -79.063782,-175.991196 -87.15625,-176.5625c-0.027466,-0.001938 -0.117584,-0.002731 -0.15625,0z" id="path5688"/>
     <path fill="url(#linearGradient5742)" fill-rule="evenodd" stroke-width="1.0000000pt" d="m233.062836,-140.872696c-8.092468,0.571304 -72.664337,106.715805 -87.15625,176.5625c-21.52774,125.415817 -31.825867,285.194168 -50.9375,410.968765c-5.671021,29.099365 -3.29776,64.858582 3.8125,82.34375c7.230591,23.69812 27.770599,48.489075 52.34375,62.8125c29.992676,19.426453 52.515442,18.901245 81.75,19.28125c0.153442,0.094604 0.354156,0.118286 0.53125,0c30.618164,-0.034363 53.486298,-1.237976 81.75,-19.28125c24.573151,-14.323425 45.113129,-39.11438 52.343719,-62.8125c7.110229,-17.485168 9.483521,-53.244385 3.8125,-82.34375c-19.111694,-125.774597 -29.409729,-285.552948 -50.937469,-410.968765c-14.491913,-69.84671 -79.063782,-175.991196 -87.15625,-176.5625c-0.027466,-0.001938 -0.117584,-0.002731 -0.15625,0z" id="path5690"/>
     <path fill="url(#linearGradient5744)" fill-rule="evenodd" stroke-width="1.1043777pt" stroke-opacity="0.463636" d="m203.439178,609.758972l-9.78125,223.4375c84.897919,0 84.875,0 84.875,0l-14.875,-223.4375l-60.21875,0z" id="path5692"/>
    </g>
    <g id="g5694" transform="matrix(0.0779586, -0.0263016, 0.0102025, 0.0250832, 430.037, 352.105)">
     <path fill="url(#linearGradient5746)" fill-rule="evenodd" stroke-width="1.0000000pt" d="m243.125488,-151.28212c-8.092468,0.571304 -72.664337,106.715805 -87.15625,176.5625c-21.52774,125.415833 -31.825867,285.194138 -50.9375,410.968735c-5.671021,29.099426 -3.29776,64.858582 3.8125,82.343719c7.230591,23.69812 27.770599,48.489136 52.34375,62.8125c29.992676,19.426514 52.515442,18.901245 81.75,19.28125c0.153442,0.094604 0.354156,0.118286 0.53125,0c30.618164,-0.034302 53.486298,-1.237915 81.75,-19.28125c24.57312,-14.323364 45.113159,-39.11438 52.34375,-62.8125c7.110229,-17.485138 9.483521,-53.244293 3.8125,-82.343719c-19.111633,-125.774597 -29.409729,-285.552933 -50.9375,-410.968735c-14.491913,-69.84671 -79.063782,-175.991196 -87.15625,-176.5625c-0.027466,-0.001938 -0.117584,-0.002731 -0.15625,0z" id="path5696"/>
     <path fill="url(#linearGradient5748)" fill-rule="evenodd" stroke-width="1.0000000pt" d="m243.125488,-153.164703c-8.092468,0.571304 -72.664337,106.715805 -87.15625,176.5625c-21.52774,125.415817 -31.825867,285.194153 -50.9375,410.96875c-5.671021,29.099365 -3.29776,64.858582 3.8125,82.343719c7.230591,23.69812 27.770599,48.489136 52.34375,62.8125c29.992676,19.426514 52.515442,18.901245 81.75,19.28125c0.153442,0.094604 0.354156,0.118286 0.53125,0c30.618164,-0.034302 53.486298,-1.237915 81.75,-19.28125c24.573181,-14.323364 45.113159,-39.11438 52.34375,-62.8125c7.110229,-17.485138 9.483521,-53.244354 3.8125,-82.343719c-19.111694,-125.774597 -29.40979,-285.552933 -50.9375,-410.96875c-14.491913,-69.84671 -79.063782,-175.991196 -87.15625,-176.5625c-0.027466,-0.001938 -0.117584,-0.002731 -0.15625,0z" id="path5698"/>
     <path fill="url(#linearGradient5750)" fill-rule="evenodd" stroke-width="1.1043777pt" stroke-opacity="0.463636" d="m213.501816,597.466919l-9.78125,223.4375c84.897934,0 84.875015,0 84.875015,0l-14.875,-223.4375l-60.218765,0z" id="path5700"/>
    </g>
   </g>
   <g transform="matrix(7.890200e-2,-2.104006e-2,6.233443e-3,2.901432e-2,446.9947,353.9808)" id="g5644">
    <path fill="url(#linearGradient5666)" fill-rule="evenodd" stroke-width="1.0000000pt" id="path5646" d="m220.186157,24.000931c-8.092468,0.571301 -72.664337,106.715805 -87.15625,176.5625c-21.52774,125.415817 -31.825867,285.194138 -50.9375,410.968735c-5.671005,29.099426 -3.29776,64.858582 3.8125,82.34375c7.230591,23.69812 27.770599,48.489075 52.34375,62.8125c29.992676,19.426453 52.515442,18.901245 81.75,19.28125c0.153442,0.094604 0.354156,0.118286 0.53125,0c30.618164,-0.034363 53.486298,-1.237976 81.75,-19.28125c24.573151,-14.323425 45.113159,-39.11438 52.34375,-62.8125c7.110229,-17.485168 9.483521,-53.244324 3.8125,-82.34375c-19.111633,-125.774597 -29.409729,-285.552948 -50.9375,-410.968735c-14.491913,-69.84671 -79.063782,-175.991199 -87.15625,-176.5625c-0.027466,-0.001942 -0.117584,-0.002731 -0.15625,0z"/>
    <path fill="url(#linearGradient5668)" fill-rule="evenodd" stroke-width="1.0000000pt" id="path5648" d="m220.186157,22.118351c-8.092468,0.571301 -72.664337,106.715801 -87.15625,176.562496c-21.52774,125.415802 -31.825867,285.194153 -50.9375,410.96875c-5.671005,29.099365 -3.29776,64.858582 3.8125,82.34375c7.230591,23.69812 27.770599,48.489075 52.34375,62.8125c29.992676,19.426453 52.515442,18.901245 81.75,19.28125c0.153442,0.094604 0.354156,0.118286 0.53125,0c30.618164,-0.034363 53.486298,-1.237976 81.75,-19.28125c24.573181,-14.323425 45.113159,-39.11438 52.34375,-62.8125c7.110229,-17.485168 9.483521,-53.244385 3.8125,-82.34375c-19.111694,-125.774597 -29.40976,-285.552948 -50.9375,-410.96875c-14.491913,-69.84671 -79.063782,-175.991196 -87.15625,-176.562496c-0.027466,-0.001942 -0.117584,-0.002731 -0.15625,0z"/>
    <path fill="url(#linearGradient5670)" fill-rule="evenodd" stroke-width="1.1043777pt" stroke-opacity="0.463636" id="path5650" d="m190.5625,772.75l-9.78125,223.4375c84.897919,0 84.875,0 84.875,0l-14.875,-223.4375l-60.21875,0z"/>
   </g>
   <g transform="matrix(6.633023e-2,-1.587628e-2,5.240244e-3,2.189345e-2,469.6906,287.9504)" id="g5552">
    <path fill="url(#linearGradient5576)" fill-rule="evenodd" stroke-width="1.0000000pt" id="path5554" d="m220.186157,24.000931c-8.092468,0.571301 -72.664337,106.715805 -87.15625,176.5625c-21.52774,125.415817 -31.825867,285.194138 -50.9375,410.968735c-5.671005,29.099426 -3.29776,64.858582 3.8125,82.34375c7.230591,23.69812 27.770599,48.489075 52.34375,62.8125c29.992676,19.426453 52.515442,18.901245 81.75,19.28125c0.153442,0.094604 0.354156,0.118286 0.53125,0c30.618164,-0.034363 53.486298,-1.237976 81.75,-19.28125c24.573151,-14.323425 45.113159,-39.11438 52.34375,-62.8125c7.110229,-17.485168 9.483521,-53.244324 3.8125,-82.34375c-19.111633,-125.774597 -29.409729,-285.552948 -50.9375,-410.968735c-14.491913,-69.84671 -79.063782,-175.991199 -87.15625,-176.5625c-0.027466,-0.001942 -0.117584,-0.002731 -0.15625,0z"/>
    <path fill="url(#linearGradient5578)" fill-rule="evenodd" stroke-width="1.0000000pt" id="path5556" d="m220.186157,22.118351c-8.092468,0.571301 -72.664337,106.715801 -87.15625,176.562496c-21.52774,125.415802 -31.825867,285.194153 -50.9375,410.96875c-5.671005,29.099365 -3.29776,64.858582 3.8125,82.34375c7.230591,23.69812 27.770599,48.489075 52.34375,62.8125c29.992676,19.426453 52.515442,18.901245 81.75,19.28125c0.153442,0.094604 0.354156,0.118286 0.53125,0c30.618164,-0.034363 53.486298,-1.237976 81.75,-19.28125c24.573181,-14.323425 45.113159,-39.11438 52.34375,-62.8125c7.110229,-17.485168 9.483521,-53.244385 3.8125,-82.34375c-19.111694,-125.774597 -29.40976,-285.552948 -50.9375,-410.96875c-14.491913,-69.84671 -79.063782,-175.991196 -87.15625,-176.562496c-0.027466,-0.001942 -0.117584,-0.002731 -0.15625,0z"/>
    <path fill="url(#linearGradient5580)" fill-rule="evenodd" stroke-width="1.1043777pt" stroke-opacity="0.463636" id="path5558" d="m190.5625,772.75l-9.78125,223.4375c84.897919,0 84.875,0 84.875,0l-14.875,-223.4375l-60.21875,0z"/>
   </g>
   <g transform="matrix(7.890200e-2,-2.104006e-2,6.233443e-3,2.901432e-2,459.1376,303.2666)" id="g5560">
    <path fill="url(#linearGradient5582)" fill-rule="evenodd" stroke-width="1.0000000pt" id="path5562" d="m220.186157,24.000931c-8.092468,0.571301 -72.664337,106.715805 -87.15625,176.5625c-21.52774,125.415817 -31.825867,285.194138 -50.9375,410.968735c-5.671005,29.099426 -3.29776,64.858582 3.8125,82.34375c7.230591,23.69812 27.770599,48.489075 52.34375,62.8125c29.992676,19.426453 52.515442,18.901245 81.75,19.28125c0.153442,0.094604 0.354156,0.118286 0.53125,0c30.618164,-0.034363 53.486298,-1.237976 81.75,-19.28125c24.573151,-14.323425 45.113159,-39.11438 52.34375,-62.8125c7.110229,-17.485168 9.483521,-53.244324 3.8125,-82.34375c-19.111633,-125.774597 -29.409729,-285.552948 -50.9375,-410.968735c-14.491913,-69.84671 -79.063782,-175.991199 -87.15625,-176.5625c-0.027466,-0.001942 -0.117584,-0.002731 -0.15625,0z"/>
    <path fill="url(#linearGradient5584)" fill-rule="evenodd" stroke-width="1.0000000pt" id="path5564" d="m220.186157,22.118351c-8.092468,0.571301 -72.664337,106.715801 -87.15625,176.562496c-21.52774,125.415802 -31.825867,285.194153 -50.9375,410.96875c-5.671005,29.099365 -3.29776,64.858582 3.8125,82.34375c7.230591,23.69812 27.770599,48.489075 52.34375,62.8125c29.992676,19.426453 52.515442,18.901245 81.75,19.28125c0.153442,0.094604 0.354156,0.118286 0.53125,0c30.618164,-0.034363 53.486298,-1.237976 81.75,-19.28125c24.573181,-14.323425 45.113159,-39.11438 52.34375,-62.8125c7.110229,-17.485168 9.483521,-53.244385 3.8125,-82.34375c-19.111694,-125.774597 -29.40976,-285.552948 -50.9375,-410.96875c-14.491913,-69.84671 -79.063782,-175.991196 -87.15625,-176.562496c-0.027466,-0.001942 -0.117584,-0.002731 -0.15625,0z"/>
    <path fill="url(#linearGradient5586)" fill-rule="evenodd" stroke-width="1.1043777pt" stroke-opacity="0.463636" id="path5566" d="m190.5625,772.75l-9.78125,223.4375c84.897919,0 84.875,0 84.875,0l-14.875,-223.4375l-60.21875,0z"/>
   </g>
   <g transform="matrix(7.795864e-2,-2.630158e-2,1.020246e-2,2.508320e-2,478.6083,291.3911)" id="g5568">
    <path fill="url(#linearGradient5588)" fill-rule="evenodd" stroke-width="1.0000000pt" id="path5570" d="m220.186157,24.000931c-8.092468,0.571301 -72.664337,106.715805 -87.15625,176.5625c-21.52774,125.415817 -31.825867,285.194138 -50.9375,410.968735c-5.671005,29.099426 -3.29776,64.858582 3.8125,82.34375c7.230591,23.69812 27.770599,48.489075 52.34375,62.8125c29.992676,19.426453 52.515442,18.901245 81.75,19.28125c0.153442,0.094604 0.354156,0.118286 0.53125,0c30.618164,-0.034363 53.486298,-1.237976 81.75,-19.28125c24.573151,-14.323425 45.113159,-39.11438 52.34375,-62.8125c7.110229,-17.485168 9.483521,-53.244324 3.8125,-82.34375c-19.111633,-125.774597 -29.409729,-285.552948 -50.9375,-410.968735c-14.491913,-69.84671 -79.063782,-175.991199 -87.15625,-176.5625c-0.027466,-0.001942 -0.117584,-0.002731 -0.15625,0z"/>
    <path fill="url(#linearGradient5590)" fill-rule="evenodd" stroke-width="1.0000000pt" id="path5572" d="m220.186157,22.118351c-8.092468,0.571301 -72.664337,106.715801 -87.15625,176.562496c-21.52774,125.415802 -31.825867,285.194153 -50.9375,410.96875c-5.671005,29.099365 -3.29776,64.858582 3.8125,82.34375c7.230591,23.69812 27.770599,48.489075 52.34375,62.8125c29.992676,19.426453 52.515442,18.901245 81.75,19.28125c0.153442,0.094604 0.354156,0.118286 0.53125,0c30.618164,-0.034363 53.486298,-1.237976 81.75,-19.28125c24.573181,-14.323425 45.113159,-39.11438 52.34375,-62.8125c7.110229,-17.485168 9.483521,-53.244385 3.8125,-82.34375c-19.111694,-125.774597 -29.40976,-285.552948 -50.9375,-410.96875c-14.491913,-69.84671 -79.063782,-175.991196 -87.15625,-176.562496c-0.027466,-0.001942 -0.117584,-0.002731 -0.15625,0z"/>
    <path fill="url(#linearGradient5592)" fill-rule="evenodd" stroke-width="1.1043777pt" stroke-opacity="0.463636" id="path5574" d="m190.5625,772.75l-9.78125,223.4375c84.897919,0 84.875,0 84.875,0l-14.875,-223.4375l-60.21875,0z"/>
   </g>
   <g transform="matrix(7.795864e-2,-2.630158e-2,1.020246e-2,2.508320e-2,466.4654,342.1053)" id="g5652">
    <path fill="url(#linearGradient5672)" fill-rule="evenodd" stroke-width="1.0000000pt" id="path5654" d="m220.186157,24.000931c-8.092468,0.571301 -72.664337,106.715805 -87.15625,176.5625c-21.52774,125.415817 -31.825867,285.194138 -50.9375,410.968735c-5.671005,29.099426 -3.29776,64.858582 3.8125,82.34375c7.230591,23.69812 27.770599,48.489075 52.34375,62.8125c29.992676,19.426453 52.515442,18.901245 81.75,19.28125c0.153442,0.094604 0.354156,0.118286 0.53125,0c30.618164,-0.034363 53.486298,-1.237976 81.75,-19.28125c24.573151,-14.323425 45.113159,-39.11438 52.34375,-62.8125c7.110229,-17.485168 9.483521,-53.244324 3.8125,-82.34375c-19.111633,-125.774597 -29.409729,-285.552948 -50.9375,-410.968735c-14.491913,-69.84671 -79.063782,-175.991199 -87.15625,-176.5625c-0.027466,-0.001942 -0.117584,-0.002731 -0.15625,0z"/>
    <path fill="url(#linearGradient5674)" fill-rule="evenodd" stroke-width="1.0000000pt" id="path5656" d="m220.186157,22.118351c-8.092468,0.571301 -72.664337,106.715801 -87.15625,176.562496c-21.52774,125.415802 -31.825867,285.194153 -50.9375,410.96875c-5.671005,29.099365 -3.29776,64.858582 3.8125,82.34375c7.230591,23.69812 27.770599,48.489075 52.34375,62.8125c29.992676,19.426453 52.515442,18.901245 81.75,19.28125c0.153442,0.094604 0.354156,0.118286 0.53125,0c30.618164,-0.034363 53.486298,-1.237976 81.75,-19.28125c24.573181,-14.323425 45.113159,-39.11438 52.34375,-62.8125c7.110229,-17.485168 9.483521,-53.244385 3.8125,-82.34375c-19.111694,-125.774597 -29.40976,-285.552948 -50.9375,-410.96875c-14.491913,-69.84671 -79.063782,-175.991196 -87.15625,-176.562496c-0.027466,-0.001942 -0.117584,-0.002731 -0.15625,0z"/>
    <path fill="url(#linearGradient5676)" fill-rule="evenodd" stroke-width="1.1043777pt" stroke-opacity="0.463636" id="path5658" d="m190.5625,772.75l-9.78125,223.4375c84.897919,0 84.875,0 84.875,0l-14.875,-223.4375l-60.21875,0z"/>
   </g>
   <g transform="matrix(6.633023e-2,-1.587628e-2,5.240244e-3,2.189345e-2,481.1192,350.0932)" id="g5594">
    <path fill="url(#linearGradient5618)" fill-rule="evenodd" stroke-width="1.0000000pt" id="path5596" d="m220.186157,24.000931c-8.092468,0.571301 -72.664337,106.715805 -87.15625,176.5625c-21.52774,125.415817 -31.825867,285.194138 -50.9375,410.968735c-5.671005,29.099426 -3.29776,64.858582 3.8125,82.34375c7.230591,23.69812 27.770599,48.489075 52.34375,62.8125c29.992676,19.426453 52.515442,18.901245 81.75,19.28125c0.153442,0.094604 0.354156,0.118286 0.53125,0c30.618164,-0.034363 53.486298,-1.237976 81.75,-19.28125c24.573151,-14.323425 45.113159,-39.11438 52.34375,-62.8125c7.110229,-17.485168 9.483521,-53.244324 3.8125,-82.34375c-19.111633,-125.774597 -29.409729,-285.552948 -50.9375,-410.968735c-14.491913,-69.84671 -79.063782,-175.991199 -87.15625,-176.5625c-0.027466,-0.001942 -0.117584,-0.002731 -0.15625,0z"/>
    <path fill="url(#linearGradient5620)" fill-rule="evenodd" stroke-width="1.0000000pt" id="path5598" d="m220.186157,22.118351c-8.092468,0.571301 -72.664337,106.715801 -87.15625,176.562496c-21.52774,125.415802 -31.825867,285.194153 -50.9375,410.96875c-5.671005,29.099365 -3.29776,64.858582 3.8125,82.34375c7.230591,23.69812 27.770599,48.489075 52.34375,62.8125c29.992676,19.426453 52.515442,18.901245 81.75,19.28125c0.153442,0.094604 0.354156,0.118286 0.53125,0c30.618164,-0.034363 53.486298,-1.237976 81.75,-19.28125c24.573181,-14.323425 45.113159,-39.11438 52.34375,-62.8125c7.110229,-17.485168 9.483521,-53.244385 3.8125,-82.34375c-19.111694,-125.774597 -29.40976,-285.552948 -50.9375,-410.96875c-14.491913,-69.84671 -79.063782,-175.991196 -87.15625,-176.562496c-0.027466,-0.001942 -0.117584,-0.002731 -0.15625,0z"/>
    <path fill="url(#linearGradient5622)" fill-rule="evenodd" stroke-width="1.1043777pt" stroke-opacity="0.463636" id="path5600" d="m190.5625,772.75l-9.78125,223.4375c84.897919,0 84.875,0 84.875,0l-14.875,-223.4375l-60.21875,0z"/>
   </g>
   <g transform="matrix(7.890200e-2,-2.104006e-2,6.233443e-3,2.901432e-2,470.5662,365.4094)" id="g5602">
    <path fill="url(#linearGradient5624)" fill-rule="evenodd" stroke-width="1.0000000pt" id="path5604" d="m220.186157,24.000931c-8.092468,0.571301 -72.664337,106.715805 -87.15625,176.5625c-21.52774,125.415817 -31.825867,285.194138 -50.9375,410.968735c-5.671005,29.099426 -3.29776,64.858582 3.8125,82.34375c7.230591,23.69812 27.770599,48.489075 52.34375,62.8125c29.992676,19.426453 52.515442,18.901245 81.75,19.28125c0.153442,0.094604 0.354156,0.118286 0.53125,0c30.618164,-0.034363 53.486298,-1.237976 81.75,-19.28125c24.573151,-14.323425 45.113159,-39.11438 52.34375,-62.8125c7.110229,-17.485168 9.483521,-53.244324 3.8125,-82.34375c-19.111633,-125.774597 -29.409729,-285.552948 -50.9375,-410.968735c-14.491913,-69.84671 -79.063782,-175.991199 -87.15625,-176.5625c-0.027466,-0.001942 -0.117584,-0.002731 -0.15625,0z"/>
    <path fill="url(#linearGradient5626)" fill-rule="evenodd" stroke-width="1.0000000pt" id="path5606" d="m220.186157,22.118351c-8.092468,0.571301 -72.664337,106.715801 -87.15625,176.562496c-21.52774,125.415802 -31.825867,285.194153 -50.9375,410.96875c-5.671005,29.099365 -3.29776,64.858582 3.8125,82.34375c7.230591,23.69812 27.770599,48.489075 52.34375,62.8125c29.992676,19.426453 52.515442,18.901245 81.75,19.28125c0.153442,0.094604 0.354156,0.118286 0.53125,0c30.618164,-0.034363 53.486298,-1.237976 81.75,-19.28125c24.573181,-14.323425 45.113159,-39.11438 52.34375,-62.8125c7.110229,-17.485168 9.483521,-53.244385 3.8125,-82.34375c-19.111694,-125.774597 -29.40976,-285.552948 -50.9375,-410.96875c-14.491913,-69.84671 -79.063782,-175.991196 -87.15625,-176.562496c-0.027466,-0.001942 -0.117584,-0.002731 -0.15625,0z"/>
    <path fill="url(#linearGradient5628)" fill-rule="evenodd" stroke-width="1.1043777pt" stroke-opacity="0.463636" id="path5608" d="m190.5625,772.75l-9.78125,223.4375c84.897919,0 84.875,0 84.875,0l-14.875,-223.4375l-60.21875,0z"/>
   </g>
   <g transform="matrix(7.795864e-2,-2.630158e-2,1.020246e-2,2.508320e-2,490.0369,353.5339)" id="g5610">
    <path fill="url(#linearGradient5630)" fill-rule="evenodd" stroke-width="1.0000000pt" id="path5612" d="m220.186157,24.000931c-8.092468,0.571301 -72.664337,106.715805 -87.15625,176.5625c-21.52774,125.415817 -31.825867,285.194138 -50.9375,410.968735c-5.671005,29.099426 -3.29776,64.858582 3.8125,82.34375c7.230591,23.69812 27.770599,48.489075 52.34375,62.8125c29.992676,19.426453 52.515442,18.901245 81.75,19.28125c0.153442,0.094604 0.354156,0.118286 0.53125,0c30.618164,-0.034363 53.486298,-1.237976 81.75,-19.28125c24.573151,-14.323425 45.113159,-39.11438 52.34375,-62.8125c7.110229,-17.485168 9.483521,-53.244324 3.8125,-82.34375c-19.111633,-125.774597 -29.409729,-285.552948 -50.9375,-410.968735c-14.491913,-69.84671 -79.063782,-175.991199 -87.15625,-176.5625c-0.027466,-0.001942 -0.117584,-0.002731 -0.15625,0z"/>
    <path fill="url(#linearGradient5632)" fill-rule="evenodd" stroke-width="1.0000000pt" id="path5614" d="m220.186157,22.118351c-8.092468,0.571301 -72.664337,106.715801 -87.15625,176.562496c-21.52774,125.415802 -31.825867,285.194153 -50.9375,410.96875c-5.671005,29.099365 -3.29776,64.858582 3.8125,82.34375c7.230591,23.69812 27.770599,48.489075 52.34375,62.8125c29.992676,19.426453 52.515442,18.901245 81.75,19.28125c0.153442,0.094604 0.354156,0.118286 0.53125,0c30.618164,-0.034363 53.486298,-1.237976 81.75,-19.28125c24.573181,-14.323425 45.113159,-39.11438 52.34375,-62.8125c7.110229,-17.485168 9.483521,-53.244385 3.8125,-82.34375c-19.111694,-125.774597 -29.40976,-285.552948 -50.9375,-410.96875c-14.491913,-69.84671 -79.063782,-175.991196 -87.15625,-176.562496c-0.027466,-0.001942 -0.117584,-0.002731 -0.15625,0z"/>
    <path fill="url(#linearGradient5634)" fill-rule="evenodd" stroke-width="1.1043777pt" stroke-opacity="0.463636" id="path5616" d="m190.5625,772.75l-9.78125,223.4375c84.897919,0 84.875,0 84.875,0l-14.875,-223.4375l-60.21875,0z"/>
   </g>
   <g id="g5786">
    <g id="g5788" transform="matrix(0.0663302, -0.0158763, 0.00524024, 0.0218934, 421.119, 348.665)">
     <path fill="url(#linearGradient5876)" fill-rule="evenodd" stroke-width="1.0000000pt" d="m-398.844299,-12786.790039c-8.092468,0.571289 -72.664337,106.71582 -87.15625,176.5625c-21.52774,125.416016 -31.825867,285.194336 -50.9375,410.96875c-5.671021,29.099609 -3.297791,64.858398 3.8125,82.34375c7.230591,23.698242 27.770599,48.489258 52.34375,62.8125c29.992676,19.426758 52.515442,18.901367 81.75,19.28125c0.153442,0.094727 0.354156,0.118164 0.53125,0c30.618164,-0.03418 53.486298,-1.238281 81.75,-19.28125c24.573151,-14.323242 45.113159,-39.114258 52.34375,-62.8125c7.110229,-17.485352 9.483521,-53.244141 3.8125,-82.34375c-19.111633,-125.774414 -29.409729,-285.552734 -50.9375,-410.96875c-14.491913,-69.84668 -79.063782,-175.991211 -87.15625,-176.5625c-0.027466,-0.001953 -0.117584,-0.00293 -0.15625,0z" id="path5790"/>
     <path fill="url(#linearGradient5878)" fill-rule="evenodd" stroke-width="1.0000000pt" d="m-398.844299,-12788.672852c-8.092468,0.571289 -72.664337,106.71582 -87.15625,176.5625c-21.52774,125.416016 -31.825867,285.194336 -50.9375,410.96875c-5.671021,29.099609 -3.297791,64.858398 3.8125,82.34375c7.230591,23.698242 27.770599,48.489258 52.34375,62.8125c29.992676,19.426758 52.515442,18.901367 81.75,19.28125c0.153442,0.094727 0.354156,0.118164 0.53125,0c30.618164,-0.03418 53.486298,-1.237305 81.75,-19.28125c24.573181,-14.323242 45.113159,-39.114258 52.34375,-62.8125c7.110229,-17.485352 9.483521,-53.244141 3.8125,-82.34375c-19.111694,-125.774414 -29.40976,-285.552734 -50.9375,-410.96875c-14.491913,-69.84668 -79.063782,-175.991211 -87.15625,-176.5625c-0.027466,-0.001953 -0.117584,-0.00293 -0.15625,0z" id="path5792"/>
     <path fill="url(#linearGradient5880)" fill-rule="evenodd" stroke-width="1.1043777pt" stroke-opacity="0.463636" d="m-428.467957,-12038.041016l-9.78125,223.4375c84.897919,0 84.875,0 84.875,0l-14.875,-223.4375l-60.21875,0z" id="path5794"/>
    </g>
    <g id="g5796" transform="matrix(0.078902, -0.0210401, 0.00623344, 0.0290143, 410.566, 363.981)">
     <path fill="url(#linearGradient5882)" fill-rule="evenodd" stroke-width="1.0000000pt" d="m-379.734985,-9739.001953c-8.092468,0.571289 -72.664337,106.71582 -87.15625,176.5625c-21.52774,125.416016 -31.825867,285.194336 -50.9375,410.96875c-5.671021,29.099609 -3.297729,64.858398 3.8125,82.34375c7.230591,23.698242 27.770599,48.489258 52.34375,62.8125c29.992676,19.426758 52.515442,18.901367 81.75,19.28125c0.153442,0.094727 0.354156,0.118164 0.53125,0c30.618164,-0.03418 53.486298,-1.238281 81.75,-19.28125c24.573151,-14.323242 45.113159,-39.114258 52.34375,-62.8125c7.110229,-17.485352 9.483521,-53.244141 3.8125,-82.34375c-19.111633,-125.774414 -29.409729,-285.552734 -50.9375,-410.96875c-14.491913,-69.84668 -79.063782,-175.991211 -87.15625,-176.5625c-0.027466,-0.001953 -0.117584,-0.00293 -0.15625,0z" id="path5798"/>
     <path fill="url(#linearGradient5884)" fill-rule="evenodd" stroke-width="1.0000000pt" d="m-379.734985,-9740.884766c-8.092468,0.571289 -72.664337,106.71582 -87.15625,176.5625c-21.52774,125.416016 -31.825867,285.194336 -50.9375,410.96875c-5.671021,29.099609 -3.297729,64.858398 3.8125,82.34375c7.230591,23.698242 27.770599,48.489258 52.34375,62.8125c29.992676,19.426758 52.515442,18.901367 81.75,19.28125c0.153442,0.094727 0.354156,0.118164 0.53125,0c30.618164,-0.03418 53.486298,-1.237305 81.75,-19.28125c24.573181,-14.323242 45.113159,-39.114258 52.34375,-62.8125c7.110229,-17.485352 9.483521,-53.244141 3.8125,-82.34375c-19.111694,-125.774414 -29.40976,-285.552734 -50.9375,-410.96875c-14.491913,-69.84668 -79.063782,-175.991211 -87.15625,-176.5625c-0.027466,-0.001953 -0.117584,-0.00293 -0.15625,0z" id="path5800"/>
     <path fill="url(#linearGradient5886)" fill-rule="evenodd" stroke-width="1.1043777pt" stroke-opacity="0.463636" d="m-409.358643,-8990.25293l-9.78125,223.4375c84.897919,0 84.875,0 84.875,0l-14.875,-223.4375l-60.21875,0z" id="path5802"/>
    </g>
    <g id="g5804" transform="matrix(0.0779586, -0.0263016, 0.0102025, 0.0250832, 430.037, 352.105)">
     <path fill="url(#linearGradient5888)" fill-rule="evenodd" stroke-width="1.0000000pt" d="m241.517151,-10743.503906c-8.092468,0.571289 -72.664337,106.71582 -87.15625,176.5625c-21.52774,125.416016 -31.825867,285.194336 -50.9375,410.96875c-5.671021,29.099609 -3.29776,64.858398 3.8125,82.34375c7.230591,23.698242 27.770599,48.489258 52.34375,62.8125c29.992676,19.426758 52.515442,18.901367 81.75,19.28125c0.153442,0.094727 0.354156,0.118164 0.53125,0c30.618164,-0.03418 53.486298,-1.238281 81.75,-19.28125c24.57312,-14.323242 45.113159,-39.114258 52.34375,-62.8125c7.110229,-17.485352 9.483521,-53.244141 3.8125,-82.34375c-19.111633,-125.774414 -29.409729,-285.552734 -50.9375,-410.96875c-14.491913,-69.84668 -79.063782,-175.991211 -87.15625,-176.5625c-0.027466,-0.001953 -0.117584,-0.00293 -0.15625,0z" id="path5806"/>
     <path fill="url(#linearGradient5890)" fill-rule="evenodd" stroke-width="1.0000000pt" d="m241.517151,-10745.386719c-8.092468,0.571289 -72.664337,106.71582 -87.15625,176.5625c-21.52774,125.416016 -31.825867,285.194336 -50.9375,410.96875c-5.671021,29.099609 -3.29776,64.858398 3.8125,82.34375c7.230591,23.698242 27.770599,48.489258 52.34375,62.8125c29.992676,19.426758 52.515442,18.901367 81.75,19.28125c0.153442,0.094727 0.354156,0.118164 0.53125,0c30.618164,-0.03418 53.486298,-1.237305 81.75,-19.28125c24.573181,-14.323242 45.113159,-39.114258 52.34375,-62.8125c7.110229,-17.485352 9.483521,-53.244141 3.8125,-82.34375c-19.111694,-125.774414 -29.40979,-285.552734 -50.9375,-410.96875c-14.491913,-69.84668 -79.063782,-175.991211 -87.15625,-176.5625c-0.027466,-0.001953 -0.117584,-0.00293 -0.15625,0z" id="path5808"/>
     <path fill="url(#linearGradient5892)" fill-rule="evenodd" stroke-width="1.1043777pt" stroke-opacity="0.463636" d="m211.893478,-9994.754883l-9.78125,223.4375c84.897934,0 84.875015,0 84.875015,0l-14.875,-223.4375l-60.218765,0z" id="path5810"/>
    </g>
   </g>
   <g id="g5760">
    <g id="g5762" transform="matrix(0.0663302, -0.0158763, 0.00524024, 0.0218934, 574.691, 158.665)">
     <path fill="url(#linearGradient5858)" fill-rule="evenodd" stroke-width="1.0000000pt" d="m-2727.661133,-6456.234375c-8.092285,0.571289 -72.664063,106.71582 -87.15625,176.5625c-21.527832,125.416016 -31.825684,285.194336 -50.9375,410.96875c-5.670898,29.099609 -3.297852,64.858398 3.8125,82.34375c7.230469,23.698242 27.770508,48.489258 52.34375,62.8125c29.992676,19.42627 52.515625,18.901367 81.75,19.28125c0.15332,0.094727 0.354492,0.118164 0.53125,0c30.618164,-0.03418 53.486328,-1.237793 81.75,-19.28125c24.573242,-14.323242 45.113281,-39.114258 52.34375,-62.8125c7.110352,-17.485352 9.483398,-53.244141 3.8125,-82.34375c-19.111328,-125.774414 -29.409668,-285.552734 -50.9375,-410.96875c-14.491699,-69.84668 -79.063477,-175.991211 -87.15625,-176.5625c-0.027344,-0.001953 -0.117676,-0.00293 -0.15625,0z" id="path5764"/>
     <path fill="url(#linearGradient5860)" fill-rule="evenodd" stroke-width="1.0000000pt" d="m-2727.661133,-6458.117188c-8.092285,0.571289 -72.664063,106.71582 -87.15625,176.5625c-21.527832,125.416016 -31.825684,285.194336 -50.9375,410.96875c-5.670898,29.099609 -3.297852,64.858887 3.8125,82.34375c7.230469,23.698242 27.770508,48.489258 52.34375,62.8125c29.992676,19.426758 52.515625,18.901367 81.75,19.28125c0.15332,0.094727 0.354492,0.118652 0.53125,0c30.618164,-0.03418 53.486328,-1.237793 81.75,-19.28125c24.573242,-14.323242 45.113281,-39.114258 52.34375,-62.8125c7.110352,-17.484863 9.483398,-53.244141 3.8125,-82.34375c-19.111816,-125.774414 -29.409668,-285.552734 -50.9375,-410.96875c-14.491699,-69.84668 -79.063477,-175.991211 -87.15625,-176.5625c-0.027344,-0.001465 -0.117676,-0.002441 -0.15625,0z" id="path5766"/>
     <path fill="url(#linearGradient5862)" fill-rule="evenodd" stroke-width="1.1043777pt" stroke-opacity="0.463636" d="m-2757.284668,-5707.485352l-9.78125,223.4375c84.897949,0 84.875,0 84.875,0l-14.875,-223.4375l-60.21875,0z" id="path5768"/>
    </g>
    <g id="g5770" transform="matrix(0.078902, -0.0210401, 0.00623344, 0.0290143, 564.138, 173.981)">
     <path fill="url(#linearGradient5864)" fill-rule="evenodd" stroke-width="1.0000000pt" d="m-2285.904297,-5070.109375c-8.092773,0.571289 -72.664551,106.71582 -87.15625,176.5625c-21.527832,125.416016 -31.826172,285.194336 -50.9375,410.96875c-5.670898,29.099609 -3.297852,64.858398 3.8125,82.34375c7.230469,23.698242 27.770508,48.489258 52.34375,62.8125c29.992676,19.42627 52.515137,18.901367 81.75,19.28125c0.15332,0.094727 0.354004,0.118164 0.53125,0c30.618164,-0.03418 53.486328,-1.237793 81.75,-19.28125c24.572998,-14.323242 45.113037,-39.114258 52.34375,-62.8125c7.110107,-17.485352 9.483398,-53.244141 3.8125,-82.34375c-19.111816,-125.774414 -29.409668,-285.552734 -50.9375,-410.96875c-14.492188,-69.84668 -79.063965,-175.991211 -87.15625,-176.5625c-0.027832,-0.001953 -0.117676,-0.00293 -0.15625,0z" id="path5772"/>
     <path fill="url(#linearGradient5866)" fill-rule="evenodd" stroke-width="1.0000000pt" d="m-2285.904297,-5071.992188c-8.092773,0.571289 -72.664551,106.71582 -87.15625,176.5625c-21.527832,125.416016 -31.826172,285.194336 -50.9375,410.96875c-5.670898,29.099609 -3.297852,64.858887 3.8125,82.34375c7.230469,23.698242 27.770508,48.489258 52.34375,62.8125c29.992676,19.426758 52.515137,18.901367 81.75,19.28125c0.15332,0.094727 0.354004,0.118652 0.53125,0c30.618164,-0.03418 53.486328,-1.237793 81.75,-19.28125c24.573242,-14.323242 45.113037,-39.114258 52.34375,-62.8125c7.110107,-17.484863 9.483398,-53.244141 3.8125,-82.34375c-19.111816,-125.774414 -29.409912,-285.552734 -50.9375,-410.96875c-14.492188,-69.84668 -79.063965,-175.991211 -87.15625,-176.5625c-0.027832,-0.001465 -0.117676,-0.002441 -0.15625,0z" id="path5774"/>
     <path fill="url(#linearGradient5868)" fill-rule="evenodd" stroke-width="1.1043777pt" stroke-opacity="0.463636" d="m-2315.528076,-4321.360352l-9.78125,223.4375c84.897949,0 84.875,0 84.875,0l-14.875,-223.4375l-60.21875,0z" id="path5776"/>
    </g>
    <g id="g5778" transform="matrix(0.0779586, -0.0263016, 0.0102025, 0.0250832, 583.608, 162.105)">
     <path fill="url(#linearGradient5870)" fill-rule="evenodd" stroke-width="1.0000000pt" d="m-1932.145874,-6023.217773c-8.092529,0.571289 -72.664307,106.71582 -87.15625,176.5625c-21.52771,125.416016 -31.825806,285.194336 -50.937622,410.96875c-5.670898,29.099609 -3.297607,64.858398 3.8125,82.34375c7.230713,23.698242 27.770752,48.489258 52.343872,62.8125c29.992676,19.42627 52.515381,18.901367 81.75,19.28125c0.153442,0.094727 0.354126,0.118164 0.53125,0c30.618164,-0.03418 53.486328,-1.237793 81.75,-19.28125c24.57312,-14.323242 45.113159,-39.114258 52.34375,-62.8125c7.110229,-17.485352 9.483521,-53.244141 3.8125,-82.34375c-19.111572,-125.774414 -29.409668,-285.552734 -50.9375,-410.96875c-14.491943,-69.84668 -79.063721,-175.991211 -87.15625,-176.5625c-0.027466,-0.001953 -0.117554,-0.00293 -0.15625,0z" id="path5780"/>
     <path fill="url(#linearGradient5872)" fill-rule="evenodd" stroke-width="1.0000000pt" d="m-1932.145874,-6025.100586c-8.092529,0.571289 -72.664307,106.71582 -87.15625,176.5625c-21.52771,125.416016 -31.825806,285.194336 -50.937622,410.96875c-5.670898,29.099609 -3.297607,64.858887 3.8125,82.34375c7.230713,23.698242 27.770752,48.489258 52.343872,62.8125c29.992676,19.426758 52.515381,18.901367 81.75,19.28125c0.153442,0.094727 0.354126,0.118652 0.53125,0c30.618164,-0.03418 53.486328,-1.237793 81.75,-19.28125c24.573242,-14.323242 45.113159,-39.114258 52.34375,-62.8125c7.110229,-17.484863 9.483521,-53.244141 3.8125,-82.34375c-19.111694,-125.774414 -29.40979,-285.552734 -50.9375,-410.96875c-14.491943,-69.84668 -79.063721,-175.991211 -87.15625,-176.5625c-0.027466,-0.001465 -0.117554,-0.002441 -0.15625,0z" id="path5782"/>
     <path fill="url(#linearGradient5874)" fill-rule="evenodd" stroke-width="1.1043777pt" stroke-opacity="0.463636" d="m-1961.769531,-5274.46875l-9.78125,223.4375c84.897949,0 84.875,0 84.875,0l-14.875,-223.4375l-60.21875,0z" id="path5784"/>
    </g>
   </g>
   <g transform="matrix(7.890200e-2,-2.104006e-2,6.233443e-3,2.901432e-2,372.1376,63.08244)" id="g5812">
    <path fill="url(#linearGradient5894)" fill-rule="evenodd" stroke-width="1.0000000pt" id="path5814" d="m220.186157,24.000931c-8.092468,0.571301 -72.664337,106.715805 -87.15625,176.5625c-21.52774,125.415817 -31.825867,285.194138 -50.9375,410.968735c-5.671005,29.099426 -3.29776,64.858582 3.8125,82.34375c7.230591,23.69812 27.770599,48.489075 52.34375,62.8125c29.992676,19.426453 52.515442,18.901245 81.75,19.28125c0.153442,0.094604 0.354156,0.118286 0.53125,0c30.618164,-0.034363 53.486298,-1.237976 81.75,-19.28125c24.573151,-14.323425 45.113159,-39.11438 52.34375,-62.8125c7.110229,-17.485168 9.483521,-53.244324 3.8125,-82.34375c-19.111633,-125.774597 -29.409729,-285.552948 -50.9375,-410.968735c-14.491913,-69.84671 -79.063782,-175.991199 -87.15625,-176.5625c-0.027466,-0.001942 -0.117584,-0.002731 -0.15625,0z"/>
    <path fill="url(#linearGradient5896)" fill-rule="evenodd" stroke-width="1.0000000pt" id="path5816" d="m220.186157,22.118351c-8.092468,0.571301 -72.664337,106.715801 -87.15625,176.562496c-21.52774,125.415802 -31.825867,285.194153 -50.9375,410.96875c-5.671005,29.099365 -3.29776,64.858582 3.8125,82.34375c7.230591,23.69812 27.770599,48.489075 52.34375,62.8125c29.992676,19.426453 52.515442,18.901245 81.75,19.28125c0.153442,0.094604 0.354156,0.118286 0.53125,0c30.618164,-0.034363 53.486298,-1.237976 81.75,-19.28125c24.573181,-14.323425 45.113159,-39.11438 52.34375,-62.8125c7.110229,-17.485168 9.483521,-53.244385 3.8125,-82.34375c-19.111694,-125.774597 -29.40976,-285.552948 -50.9375,-410.96875c-14.491913,-69.84671 -79.063782,-175.991196 -87.15625,-176.562496c-0.027466,-0.001942 -0.117584,-0.002731 -0.15625,0z"/>
    <path fill="url(#linearGradient5898)" fill-rule="evenodd" stroke-width="1.1043777pt" stroke-opacity="0.463636" id="path5818" d="m190.5625,772.75l-9.78125,223.4375c84.897919,0 84.875,0 84.875,0l-14.875,-223.4375l-60.21875,0z"/>
   </g>
   <g transform="matrix(7.795864e-2,-2.630158e-2,1.020246e-2,2.508320e-2,389.5880,77.47091)" id="g5820">
    <path fill="url(#linearGradient5900)" fill-rule="evenodd" stroke-width="1.0000000pt" id="path5822" d="m220.186157,24.000931c-8.092468,0.571301 -72.664337,106.715805 -87.15625,176.5625c-21.52774,125.415817 -31.825867,285.194138 -50.9375,410.968735c-5.671005,29.099426 -3.29776,64.858582 3.8125,82.34375c7.230591,23.69812 27.770599,48.489075 52.34375,62.8125c29.992676,19.426453 52.515442,18.901245 81.75,19.28125c0.153442,0.094604 0.354156,0.118286 0.53125,0c30.618164,-0.034363 53.486298,-1.237976 81.75,-19.28125c24.573151,-14.323425 45.113159,-39.11438 52.34375,-62.8125c7.110229,-17.485168 9.483521,-53.244324 3.8125,-82.34375c-19.111633,-125.774597 -29.409729,-285.552948 -50.9375,-410.968735c-14.491913,-69.84671 -79.063782,-175.991199 -87.15625,-176.5625c-0.027466,-0.001942 -0.117584,-0.002731 -0.15625,0z"/>
    <path fill="url(#linearGradient5902)" fill-rule="evenodd" stroke-width="1.0000000pt" id="path5824" d="m220.186157,22.118351c-8.092468,0.571301 -72.664337,106.715801 -87.15625,176.562496c-21.52774,125.415802 -31.825867,285.194153 -50.9375,410.96875c-5.671005,29.099365 -3.29776,64.858582 3.8125,82.34375c7.230591,23.69812 27.770599,48.489075 52.34375,62.8125c29.992676,19.426453 52.515442,18.901245 81.75,19.28125c0.153442,0.094604 0.354156,0.118286 0.53125,0c30.618164,-0.034363 53.486298,-1.237976 81.75,-19.28125c24.573181,-14.323425 45.113159,-39.11438 52.34375,-62.8125c7.110229,-17.485168 9.483521,-53.244385 3.8125,-82.34375c-19.111694,-125.774597 -29.40976,-285.552948 -50.9375,-410.96875c-14.491913,-69.84671 -79.063782,-175.991196 -87.15625,-176.562496c-0.027466,-0.001942 -0.117584,-0.002731 -0.15625,0z"/>
    <path fill="url(#linearGradient5904)" fill-rule="evenodd" stroke-width="1.1043777pt" stroke-opacity="0.463636" id="path5826" d="m190.5625,772.75l-9.78125,223.4375c84.897919,0 84.875,0 84.875,0l-14.875,-223.4375l-60.21875,0z"/>
   </g>
   <g transform="matrix(6.114077e-2,-3.022519e-2,9.976351e-3,2.018058e-2,198.8718,146.2266)" id="g5828">
    <path fill="url(#linearGradient5906)" fill-rule="evenodd" stroke-width="1.0000000pt" id="path5830" d="m220.186157,24.000931c-8.092468,0.571301 -72.664337,106.715805 -87.15625,176.5625c-21.52774,125.415817 -31.825867,285.194138 -50.9375,410.968735c-5.671005,29.099426 -3.29776,64.858582 3.8125,82.34375c7.230591,23.69812 27.770599,48.489075 52.34375,62.8125c29.992676,19.426453 52.515442,18.901245 81.75,19.28125c0.153442,0.094604 0.354156,0.118286 0.53125,0c30.618164,-0.034363 53.486298,-1.237976 81.75,-19.28125c24.573151,-14.323425 45.113159,-39.11438 52.34375,-62.8125c7.110229,-17.485168 9.483521,-53.244324 3.8125,-82.34375c-19.111633,-125.774597 -29.409729,-285.552948 -50.9375,-410.968735c-14.491913,-69.84671 -79.063782,-175.991199 -87.15625,-176.5625c-0.027466,-0.001942 -0.117584,-0.002731 -0.15625,0z"/>
    <path fill="url(#linearGradient5908)" fill-rule="evenodd" stroke-width="1.0000000pt" id="path5832" d="m220.186157,22.118351c-8.092468,0.571301 -72.664337,106.715801 -87.15625,176.562496c-21.52774,125.415802 -31.825867,285.194153 -50.9375,410.96875c-5.671005,29.099365 -3.29776,64.858582 3.8125,82.34375c7.230591,23.69812 27.770599,48.489075 52.34375,62.8125c29.992676,19.426453 52.515442,18.901245 81.75,19.28125c0.153442,0.094604 0.354156,0.118286 0.53125,0c30.618164,-0.034363 53.486298,-1.237976 81.75,-19.28125c24.573181,-14.323425 45.113159,-39.11438 52.34375,-62.8125c7.110229,-17.485168 9.483521,-53.244385 3.8125,-82.34375c-19.111694,-125.774597 -29.40976,-285.552948 -50.9375,-410.96875c-14.491913,-69.84671 -79.063782,-175.991196 -87.15625,-176.562496c-0.027466,-0.001942 -0.117584,-0.002731 -0.15625,0z"/>
    <path fill="url(#linearGradient5910)" fill-rule="evenodd" stroke-width="1.1043777pt" stroke-opacity="0.463636" id="path5834" d="m190.5625,772.75l-9.78125,223.4375c84.897919,0 84.875,0 84.875,0l-14.875,-223.4375l-60.21875,0z"/>
   </g>
   <g transform="matrix(6.633023e-2,-1.587628e-2,5.240244e-3,2.189345e-2,361.4774,82.11143)" id="g5752">
    <path fill="url(#linearGradient5852)" fill-rule="evenodd" stroke-width="1.0000000pt" id="path5754" d="m220.186157,24.000931c-8.092468,0.571301 -72.664337,106.715805 -87.15625,176.5625c-21.52774,125.415817 -31.825867,285.194138 -50.9375,410.968735c-5.671005,29.099426 -3.29776,64.858582 3.8125,82.34375c7.230591,23.69812 27.770599,48.489075 52.34375,62.8125c29.992676,19.426453 52.515442,18.901245 81.75,19.28125c0.153442,0.094604 0.354156,0.118286 0.53125,0c30.618164,-0.034363 53.486298,-1.237976 81.75,-19.28125c24.573151,-14.323425 45.113159,-39.11438 52.34375,-62.8125c7.110229,-17.485168 9.483521,-53.244324 3.8125,-82.34375c-19.111633,-125.774597 -29.409729,-285.552948 -50.9375,-410.968735c-14.491913,-69.84671 -79.063782,-175.991199 -87.15625,-176.5625c-0.027466,-0.001942 -0.117584,-0.002731 -0.15625,0z"/>
    <path fill="url(#linearGradient5854)" fill-rule="evenodd" stroke-width="1.0000000pt" id="path5756" d="m220.186157,22.118351c-8.092468,0.571301 -72.664337,106.715801 -87.15625,176.562496c-21.52774,125.415802 -31.825867,285.194153 -50.9375,410.96875c-5.671005,29.099365 -3.29776,64.858582 3.8125,82.34375c7.230591,23.69812 27.770599,48.489075 52.34375,62.8125c29.992676,19.426453 52.515442,18.901245 81.75,19.28125c0.153442,0.094604 0.354156,0.118286 0.53125,0c30.618164,-0.034363 53.486298,-1.237976 81.75,-19.28125c24.573181,-14.323425 45.113159,-39.11438 52.34375,-62.8125c7.110229,-17.485168 9.483521,-53.244385 3.8125,-82.34375c-19.111694,-125.774597 -29.40976,-285.552948 -50.9375,-410.96875c-14.491913,-69.84671 -79.063782,-175.991196 -87.15625,-176.562496c-0.027466,-0.001942 -0.117584,-0.002731 -0.15625,0z"/>
    <path fill="url(#linearGradient5856)" fill-rule="evenodd" stroke-width="1.1043777pt" stroke-opacity="0.463636" id="path5758" d="m190.5625,772.75l-9.78125,223.4375c84.897919,0 84.875,0 84.875,0l-14.875,-223.4375l-60.21875,0z"/>
   </g>
   <path fill="none" fill-opacity="0.75" fill-rule="evenodd" stroke="#000000" stroke-width="14.525" stroke-linecap="round" stroke-linejoin="round" stroke-miterlimit="4" stroke-dasharray="14.525000,43.575000" stroke-dashoffset="0" id="path4601" d="m102.85714,246.647903c41.785713,23.928574 64.422539,-27.09726 115.714287,-18.571426c30.080658,5.000061 53.571426,46.428558 51.428574,85.714264c-2.731537,50.0784 -28.476425,79.410553 -14.285706,111.428589c18.308319,41.308441 65.985321,33.691254 104.285706,14.285706c26.785706,-13.571411 31.707581,-70.459778 42.857147,-102.857147c15.789337,-45.879242 36.518066,-76.895081 65.714294,-78.571411c74.642853,-4.285721 36.071411,89.285706 94.285675,117.142853"/>
   <path fill="#94b495" fill-rule="evenodd" stroke="#0078a7" stroke-width="5.125" stroke-linecap="round" stroke-linejoin="round" stroke-miterlimit="4" id="path5924" d="m342.857147,330.21933c-5,-8.80954 -14.4953,-17.136963 -12.857147,-25c1.933289,-9.279816 13.156464,-21.510376 23.571442,-26.428589c15.299286,-7.22467 35.571381,-4.809906 51.428558,-11.428558c11.523773,-4.809937 27.941284,-13.74585 30.714294,-22.857147c2.22699,-7.317276 -10.20163,-17.792038 -15.714294,-26.428558c-8.773041,-13.744431 -25.811127,-27.840912 -27.142853,-40.714294c-0.811127,-7.840912 12.065308,-17.626816 20.714294,-21.428574c13.01767,-5.722061 29.718048,-4.047226 44.285706,-7.142853c4.47995,-0.951996 10.086639,-2.828262 14.372375,-4.494919c-0.714294,-1.428574 -0.357147,-0.357147 -1.071442,-1.785721c-4.047607,2.142868 -10.329346,2.559174 -14.729523,3.423492c-8.933136,1.75473 -18.831604,-0.485931 -27.857117,1.428574c-14.545898,3.085495 -33.905273,8.883835 -38.571442,18.571426c-8.606537,17.868317 0.754944,22.969421 7.142853,35c7.897797,14.874176 31.292084,28.566422 31.428589,40.714294c0.101593,9.042603 -19.32782,17.585617 -30.714294,22.857132c-14.32782,6.63324 -35.58844,1.861023 -49.285706,9.285706c-11.7789,6.384827 -22.295898,21.136993 -30,32.142883c-5.629242,8.041718 2.261902,17.976166 -3.571442,26.428558"/>
  </g>
 </g>
</svg>